<?xml version="1.0" encoding="UTF-8" standalone="no"?>
<!-- Created with Inkscape (http://www.inkscape.org/) -->

<svg
   xmlns:dc="http://purl.org/dc/elements/1.1/"
   xmlns:cc="http://creativecommons.org/ns#"
   xmlns:rdf="http://www.w3.org/1999/02/22-rdf-syntax-ns#"
   xmlns:svg="http://www.w3.org/2000/svg"
   xmlns="http://www.w3.org/2000/svg"
   xmlns:sodipodi="http://sodipodi.sourceforge.net/DTD/sodipodi-0.dtd"
   xmlns:inkscape="http://www.inkscape.org/namespaces/inkscape"
   width="300mm"
   height="75.445526mm"
   viewBox="0 0 300 75.445531"
   version="1.1"
   id="svg2798"
   sodipodi:docname="Backs_EvanRebuild_AlexResize.svg"
   inkscape:version="0.92.4 (5da689c313, 2019-01-14)">
  <defs
     id="defs2792" />
  <sodipodi:namedview
     id="base"
     pagecolor="#ffffff"
     bordercolor="#666666"
     borderopacity="1.0"
     inkscape:pageopacity="0.0"
     inkscape:pageshadow="2"
     inkscape:zoom="0.7"
     inkscape:cx="495.7537"
     inkscape:cy="6.3493083"
     inkscape:document-units="mm"
     inkscape:current-layer="layer1"
     showgrid="false"
     units="mm"
     fit-margin-top="0"
     fit-margin-left="0"
     fit-margin-right="0"
     fit-margin-bottom="0"
     inkscape:window-width="1920"
     inkscape:window-height="1001"
     inkscape:window-x="-9"
     inkscape:window-y="-9"
     inkscape:window-maximized="1" />
  <metadata
     id="metadata2795">
    <rdf:RDF>
      <cc:Work
         rdf:about="">
        <dc:format>image/svg+xml</dc:format>
        <dc:type
           rdf:resource="http://purl.org/dc/dcmitype/StillImage" />
        <dc:title></dc:title>
      </cc:Work>
    </rdf:RDF>
  </metadata>
  <g
     inkscape:label="Layer 1"
     inkscape:groupmode="layer"
     id="layer1"
     transform="translate(-20.02231,-59.948673)">
    <g
       id="g10"
       transform="matrix(0.30235779,0,0,-0.30235779,19.88247,297.12281)"><path
   id="path14"
   style="fill:none;fill-opacity:1;fill-rule:nonzero;stroke:#0000ff;stroke-width:0.075;stroke-miterlimit:4;stroke-dasharray:none;stroke-opacity:1"
   d="m 179.084,549.102 c 0,-7.827 -6.346,-14.173 -14.174,-14.173 H 14.6734 C 6.8457,534.929 0.5,541.275 0.5,549.102 v 221.103 c 0,7.827 6.3457,14.173 14.1734,14.173 H 164.91 c 7.828,0 14.174,-6.346 14.174,-14.173 V 549.102"
   inkscape:connector-curvature="0" />
<path
   id="path16"
   style="fill:none;stroke:#ff0000;stroke-width:0.075;stroke-linecap:butt;stroke-linejoin:miter;stroke-miterlimit:4;stroke-dasharray:none;stroke-opacity:1"
   d="m 179.084,549.102 c 0,-7.827 -6.346,-14.173 -14.174,-14.173 H 14.6734 C 6.8457,534.929 0.5,541.275 0.5,549.102 v 221.103 c 0,7.827 6.3457,14.173 14.1734,14.173 H 164.91 c 7.828,0 14.174,-6.346 14.174,-14.173 z"
   inkscape:connector-curvature="0" />
<path
   id="path28"
   style="fill:none;fill-opacity:1;fill-rule:nonzero;stroke:#0000ff;stroke-width:0.075;stroke-miterlimit:4;stroke-dasharray:none;stroke-opacity:1"
   d="m 382.47,549.102 c 0,-7.827 -6.346,-14.173 -14.174,-14.173 H 218.06 c -7.828,0 -14.174,6.346 -14.174,14.173 v 221.102 c 0,7.828 6.346,14.174 14.174,14.174 h 150.236 c 7.828,0 14.174,-6.346 14.174,-14.174 V 549.102"
   inkscape:connector-curvature="0" />
<path
   id="path30"
   style="fill:none;stroke:#ff0000;stroke-width:0.075;stroke-linecap:butt;stroke-linejoin:miter;stroke-miterlimit:4;stroke-dasharray:none;stroke-opacity:1"
   d="m 382.47,549.102 c 0,-7.827 -6.346,-14.173 -14.174,-14.173 H 218.06 c -7.828,0 -14.174,6.346 -14.174,14.173 v 221.102 c 0,7.828 6.346,14.174 14.174,14.174 h 150.236 c 7.828,0 14.174,-6.346 14.174,-14.174 z"
   inkscape:connector-curvature="0" />
<path
   id="path44"
   style="fill:none;fill-opacity:1;fill-rule:nonzero;stroke:#0000ff;stroke-width:0.075;stroke-miterlimit:4;stroke-dasharray:none;stroke-opacity:1"
   d="m 585.854,549.102 c 0,-7.827 -6.346,-14.173 -14.174,-14.173 H 421.446 c -7.827,0 -14.173,6.346 -14.173,14.173 v 221.103 c 0,7.827 6.346,14.173 14.173,14.173 H 571.68 c 7.828,0 14.174,-6.346 14.174,-14.173 V 549.102"
   inkscape:connector-curvature="0" />
<path
   id="path46"
   style="fill:none;stroke:#ff0000;stroke-width:0.075;stroke-linecap:butt;stroke-linejoin:miter;stroke-miterlimit:4;stroke-dasharray:none;stroke-opacity:1"
   d="m 585.854,549.102 c 0,-7.827 -6.346,-14.173 -14.174,-14.173 H 421.446 c -7.827,0 -14.173,6.346 -14.173,14.173 v 221.103 c 0,7.827 6.346,14.173 14.173,14.173 H 571.68 c 7.828,0 14.174,-6.346 14.174,-14.173 z"
   inkscape:connector-curvature="0" />
<path
   id="path60"
   style="fill:none;fill-opacity:1;fill-rule:nonzero;stroke:#0000ff;stroke-width:0.075;stroke-miterlimit:4;stroke-dasharray:none;stroke-opacity:1"
   d="m 416.802,758.814 v 0 h -0.001 z"
   inkscape:connector-curvature="0" />
<path
   id="path64"
   style="fill:none;fill-opacity:1;fill-rule:nonzero;stroke:#0000ff;stroke-width:0.075;stroke-miterlimit:4;stroke-dasharray:none;stroke-opacity:1"
   d="M 576.325,560.493 Z"
   inkscape:connector-curvature="0" />
<path
   id="path66"
   style="fill:none;fill-opacity:1;fill-rule:nonzero;stroke:#0000ff;stroke-width:0.075;stroke-miterlimit:4;stroke-dasharray:none;stroke-opacity:1"
   d="m 789.241,549.102 c 0,-7.827 -6.346,-14.173 -14.174,-14.173 H 624.83 c -7.826,0 -14.172,6.346 -14.172,14.173 v 221.103 c 0,7.827 6.346,14.173 14.172,14.173 h 150.237 c 7.828,0 14.174,-6.346 14.174,-14.173 V 549.102"
   inkscape:connector-curvature="0" />
<path
   id="path68"
   style="fill:none;stroke:#ff0000;stroke-width:0.075;stroke-linecap:butt;stroke-linejoin:miter;stroke-miterlimit:4;stroke-dasharray:none;stroke-opacity:1"
   d="m 789.241,549.102 c 0,-7.827 -6.346,-14.173 -14.174,-14.173 H 624.83 c -7.826,0 -14.172,6.346 -14.172,14.173 v 221.103 c 0,7.827 6.346,14.173 14.172,14.173 h 150.237 c 7.828,0 14.174,-6.346 14.174,-14.173 z"
   inkscape:connector-curvature="0" />
<path
   id="path86"
   style="fill:none;fill-opacity:1;fill-rule:nonzero;stroke:#0000ff;stroke-width:0.075;stroke-miterlimit:4;stroke-dasharray:none;stroke-opacity:1"
   d="m 992.627,549.102 c 0,-7.827 -6.345,-14.173 -14.173,-14.173 H 828.217 c -7.828,0 -14.174,6.346 -14.174,14.173 v 221.103 c 0,7.827 6.346,14.173 14.174,14.173 h 150.237 c 7.828,0 14.173,-6.346 14.173,-14.173 V 549.102"
   inkscape:connector-curvature="0" />
<path
   id="path88"
   style="fill:none;stroke:#ff0000;stroke-width:0.075;stroke-linecap:butt;stroke-linejoin:miter;stroke-miterlimit:4;stroke-dasharray:none;stroke-opacity:1"
   d="m 992.627,549.102 c 0,-7.827 -6.345,-14.173 -14.173,-14.173 H 828.217 c -7.828,0 -14.174,6.346 -14.174,14.173 v 221.103 c 0,7.827 6.346,14.173 14.174,14.173 h 150.237 c 7.828,0 14.173,-6.346 14.173,-14.173 z"
   inkscape:connector-curvature="0" />
<flowRoot
   transform="matrix(0.75000002,0,0,-0.75000002,0,784.88004)"
   style="font-style:normal;font-variant:normal;font-weight:normal;font-stretch:normal;font-size:40px;line-height:1.25;font-family:Arial;-inkscape-font-specification:Arial;letter-spacing:0px;word-spacing:0px;fill:none;fill-opacity:1;stroke:#0000ff;stroke-width:0.1;stroke-miterlimit:4;stroke-dasharray:none;stroke-opacity:1"
   id="flowRoot17852"
   xml:space="preserve"><flowRegion
     style="fill:none;stroke:#0000ff;stroke-width:0.1;stroke-miterlimit:4;stroke-dasharray:none;stroke-opacity:1"
     id="flowRegion17854"><rect
       style="fill:none;stroke:#0000ff;stroke-width:0.1;stroke-miterlimit:4;stroke-dasharray:none;stroke-opacity:1"
       y="809.30634"
       x="1068.7755"
       height="204.23047"
       width="30.222445"
       id="rect17856" /></flowRegion><flowPara
     id="flowPara17858">duhereh</flowPara></flowRoot><g
   id="text17842-4"
   style="font-style:normal;font-variant:normal;font-weight:normal;font-stretch:normal;font-size:30px;line-height:0;font-family:'Berlin Sans FB';-inkscape-font-specification:'Berlin Sans FB';text-align:center;letter-spacing:0px;word-spacing:0px;writing-mode:lr-tb;direction:ltr;text-anchor:middle;fill:none;fill-opacity:1;stroke:#0000ff;stroke-width:0.075;stroke-miterlimit:4;stroke-dasharray:none;stroke-opacity:1"
   transform="matrix(1,0,0,-1,-3.7294272e-4,-1.8724187e-4)"
   aria-label="Maha ♥ Brian ">
  <path
     inkscape:connector-curvature="0"
     id="path1608"
     style="font-style:normal;font-variant:normal;font-weight:normal;font-stretch:normal;font-size:40px;line-height:1;font-family:Constantia;-inkscape-font-specification:Constantia;text-align:center;writing-mode:lr-tb;direction:ltr;text-anchor:middle;fill:none;fill-opacity:1;stroke:#0000ff;stroke-width:0.075;stroke-miterlimit:4;stroke-dasharray:none;stroke-opacity:1"
     d="m 881.258,-714.03931 q 1.83593,0.0781 3.32031,0.0781 1.44531,0 3.88672,-0.0781 l 0.0781,0.83985 -2.46094,0.76172 q -0.44921,0.15625 -0.46875,0.66406 -0.0391,1.28906 -0.0391,3.24219 v 15.83984 q 0,2.30469 0.0391,3.88672 0.0195,0.44922 0.54688,0.60547 l 2.34375,0.72265 0.0391,0.83985 q -2.57812,-0.0586 -4.92187,-0.0586 -2.30469,0 -4.55078,0.0586 l -0.0781,-0.83985 2.24609,-0.68359 q 0.46875,-0.13672 0.48829,-0.68359 0.0391,-1.54297 0.0391,-3.84766 v -16.91406 l -9.6875,22.91015 -1.42578,0.15625 -9.7461,-23.0664 v 16.91406 q 0,2.30469 0.0391,3.84766 0.0195,0.54687 0.50781,0.68359 l 2.1875,0.68359 0.0391,0.83985 q -2.32422,-0.0586 -3.88672,-0.0586 -1.52344,0 -4.04297,0.0586 l -0.0781,-0.83985 2.40234,-0.72265 q 0.50781,-0.15625 0.52735,-0.60547 0.0391,-1.58203 0.0391,-3.88672 v -15.83984 q 0,-1.95313 -0.0391,-3.24219 -0.0195,-0.50781 -0.46875,-0.66406 l -2.42188,-0.76172 -0.0391,-0.83985 q 2.51953,0.0781 3.98437,0.0781 1.67969,0 3.4961,-0.0781 l 9.0625,21.42578 z" />
  <path
     inkscape:connector-curvature="0"
     id="path1610"
     style="font-style:normal;font-variant:normal;font-weight:normal;font-stretch:normal;font-size:40px;line-height:1;font-family:Constantia;-inkscape-font-specification:Constantia;text-align:center;writing-mode:lr-tb;direction:ltr;text-anchor:middle;fill:none;fill-opacity:1;stroke:#0000ff;stroke-width:0.075;stroke-miterlimit:4;stroke-dasharray:none;stroke-opacity:1"
     d="m 902.23456,-695.54321 q -4.27735,0 -5.83985,0.83984 -1.5625,0.83984 -1.5625,2.83203 0,1.85547 1.03516,2.63672 1.03516,0.76172 2.8125,0.76172 2.01172,0 3.51563,-0.68359 z m -9.47266,-8.04688 q 3.8086,-1.66015 6.73828,-1.66015 2.98828,0 4.64844,1.5625 1.67969,1.5625 1.66016,4.51171 l -0.0977,8.125 q -0.0195,0.9961 0.0391,1.60157 0.0781,0.60547 0.35157,0.9375 0.29296,0.3125 0.85937,0.44922 0.56641,0.11718 1.52344,0.13671 l 0.0977,0.76172 q -0.83984,0.33203 -2.05078,0.66407 -1.21093,0.33203 -1.64062,0.33203 -1.89453,0 -2.59766,-1.95313 -2.73437,1.97266 -5.15625,1.97266 -2.71484,0 -4.375,-1.32813 -1.64062,-1.34765 -1.64062,-3.78906 0,-3.00781 2.67578,-4.43359 2.69531,-1.42578 8.4375,-1.42578 l 0.0195,-1.52344 q 0.0195,-2.1875 -1.11328,-3.24219 -1.13281,-1.05469 -3.47656,-1.05469 -1.77735,0 -4.45313,0.66407 z" />
  <path
     inkscape:connector-curvature="0"
     id="path1612"
     style="font-style:normal;font-variant:normal;font-weight:normal;font-stretch:normal;font-size:40px;line-height:1;font-family:Constantia;-inkscape-font-specification:Constantia;text-align:center;writing-mode:lr-tb;direction:ltr;text-anchor:middle;fill:none;fill-opacity:1;stroke:#0000ff;stroke-width:0.075;stroke-miterlimit:4;stroke-dasharray:none;stroke-opacity:1"
     d="m 910.39862,-714.74243 q 3.18359,-0.625 6.36719,-1.38672 l 0.17578,0.15625 q -0.0977,1.83594 -0.11719,5.23437 0,3.39844 0,7.67579 3.39844,-2.1875 6.32813,-2.1875 2.71484,0 4.3164,1.52343 1.60157,1.50391 1.60157,4.4336 v 6.89453 q 0,2.24609 0.0391,3.61328 0.0195,0.50781 0.48828,0.68359 l 2.1875,0.66407 0.0391,0.80078 q -2.57812,-0.0586 -4.49219,-0.0586 -1.91406,0 -4.25781,0.0586 l -0.0781,-0.80078 1.93359,-0.56641 q 0.46875,-0.15625 0.50781,-0.60547 0.0195,-0.27344 0.0195,-1.23047 v -8.51562 q 0,-2.40235 -1.15234,-3.4375 -1.15234,-1.05469 -3.39844,-1.05469 -1.93359,0 -4.08203,0.9375 v 8.76953 q 0,2.42188 0.0391,4.43359 0.0195,0.54688 0.48829,0.6836 l 2.03125,0.58594 0.0391,0.80078 q -2.46094,-0.0586 -4.375,-0.0586 -1.91406,0 -4.53125,0.0586 l -0.0781,-0.80078 2.20703,-0.64454 q 0.50782,-0.15625 0.52735,-0.625 0.0391,-1.875 0.0391,-4.78515 v -8.16406 q 0,-3.98438 -0.0195,-7.05079 0,-3.0664 -0.0586,-4.60937 l -2.63672,-0.78125 z" />
  <path
     inkscape:connector-curvature="0"
     id="path1614"
     style="font-style:normal;font-variant:normal;font-weight:normal;font-stretch:normal;font-size:40px;line-height:1;font-family:Constantia;-inkscape-font-specification:Constantia;text-align:center;writing-mode:lr-tb;direction:ltr;text-anchor:middle;fill:none;fill-opacity:1;stroke:#0000ff;stroke-width:0.075;stroke-miterlimit:4;stroke-dasharray:none;stroke-opacity:1"
     d="m 944.65643,-695.54321 q -4.27734,0 -5.83984,0.83984 -1.5625,0.83984 -1.5625,2.83203 0,1.85547 1.03516,2.63672 1.03515,0.76172 2.8125,0.76172 2.01171,0 3.51562,-0.68359 z m -9.47265,-8.04688 q 3.80859,-1.66015 6.73828,-1.66015 2.98828,0 4.64844,1.5625 1.67968,1.5625 1.66015,4.51171 l -0.0976,8.125 q -0.0195,0.9961 0.0391,1.60157 0.0781,0.60547 0.35156,0.9375 0.29297,0.3125 0.85938,0.44922 0.5664,0.11718 1.52343,0.13671 l 0.0977,0.76172 q -0.83984,0.33203 -2.05078,0.66407 -1.21094,0.33203 -1.64063,0.33203 -1.89453,0 -2.59765,-1.95313 -2.73438,1.97266 -5.15625,1.97266 -2.71485,0 -4.375,-1.32813 -1.64063,-1.34765 -1.64063,-3.78906 0,-3.00781 2.67578,-4.43359 2.69532,-1.42578 8.4375,-1.42578 l 0.0195,-1.52344 q 0.0195,-2.1875 -1.11328,-3.24219 -1.13281,-1.05469 -3.47656,-1.05469 -1.77734,0 -4.45312,0.66407 z" />
  <path
     inkscape:connector-curvature="0"
     id="path1616"
     style="font-style:normal;font-variant:normal;font-weight:normal;font-stretch:normal;font-size:40px;line-height:1;font-family:Constantia;-inkscape-font-specification:Constantia;text-align:center;writing-mode:lr-tb;direction:ltr;text-anchor:middle;fill:none;fill-opacity:1;stroke:#0000ff;stroke-width:0.075;stroke-miterlimit:4;stroke-dasharray:none;stroke-opacity:1"
     d="m 903.0744,-645.76104 q -0.60547,-2.30468 -1.73828,-4.3164 -1.11328,-2.03125 -4.33594,-6.28906 -2.36328,-3.125 -2.91015,-3.96485 -0.89844,-1.36719 -1.3086,-2.5 -0.39062,-1.15234 -0.39062,-2.32422 0,-2.16797 1.44531,-3.63281 1.44531,-1.46484 3.59375,-1.46484 2.12891,0 3.71094,1.52343 1.1914,1.13282 1.93359,3.37891 0.625,-2.1875 1.79688,-3.33984 1.62109,-1.58203 3.73047,-1.58203 2.1289,0 3.59375,1.44531 1.48437,1.44531 1.48437,3.4375 0,1.77734 -0.85937,3.67187 -0.83985,1.89453 -3.32032,5.01953 -3.20312,4.04297 -4.66797,6.64063 -1.15234,2.05078 -1.75781,4.29687 z" />
  <path
     inkscape:connector-curvature="0"
     id="path1618"
     style="font-style:normal;font-variant:normal;font-weight:normal;font-stretch:normal;font-size:40px;line-height:1;font-family:Constantia;-inkscape-font-specification:Constantia;text-align:center;writing-mode:lr-tb;direction:ltr;text-anchor:middle;fill:none;fill-opacity:1;stroke:#0000ff;stroke-width:0.075;stroke-miterlimit:4;stroke-dasharray:none;stroke-opacity:1"
     d="m 858.42596,-634.03931 q 2.51954,0.0781 4.90235,0.0781 0.89844,-0.0391 2.91015,-0.11719 2.01172,-0.0781 2.71485,-0.0781 4.21875,0 6.36719,1.60156 2.16796,1.58203 2.16796,4.57031 0,4.80469 -5.17578,6.54297 3.02735,0.50781 4.7461,2.24609 1.73828,1.73828 1.73828,4.4336 0,3.90625 -2.83203,6.05468 -2.83203,2.12891 -7.85157,2.12891 -0.99609,0 -2.16796,-0.0586 -1.15235,-0.0586 -2.59766,-0.0586 -2.36328,0 -4.84375,0.0586 l -0.0781,-0.83985 2.40235,-0.72265 q 0.48828,-0.13672 0.52734,-0.60547 0.0195,-0.78125 0.0195,-1.73828 0.0195,-0.97657 0.0195,-2.14844 v -15.83984 q 0,-0.9961 -0.0195,-1.79688 0,-0.80078 -0.0195,-1.44531 -0.0195,-0.50781 -0.46875,-0.66406 l -2.42187,-0.76172 z m 6.75782,13.75 v 11.85547 q 0.58593,0.21485 1.34765,0.27344 0.78125,0.0586 1.42578,0.0586 3.24219,0 4.92188,-1.60156 1.69922,-1.60156 1.69922,-4.64844 0,-3.04687 -1.71875,-4.51172 -1.69922,-1.48437 -5.50781,-1.48437 -1.11329,0 -2.16797,0.0586 z m 0,-1.5625 q 1.21093,0.0195 2.46093,0.0195 2.89063,0 4.35547,-1.38671 1.48438,-1.40625 1.48438,-4.0625 0,-2.79297 -1.52344,-4.00391 -1.50391,-1.23047 -4.35547,-1.23047 -0.50781,0 -1.11328,0.0391 -0.60547,0.0195 -1.30859,0.0977 z" />
  <path
     inkscape:connector-curvature="0"
     id="path1620"
     style="font-style:normal;font-variant:normal;font-weight:normal;font-stretch:normal;font-size:40px;line-height:1;font-family:Constantia;-inkscape-font-specification:Constantia;text-align:center;writing-mode:lr-tb;direction:ltr;text-anchor:middle;fill:none;fill-opacity:1;stroke:#0000ff;stroke-width:0.075;stroke-miterlimit:4;stroke-dasharray:none;stroke-opacity:1"
     d="m 881.55096,-623.88306 q 3.26172,-0.625 6.19141,-1.36718 l 0.19531,0.13671 v 2.28516 q 3.61328,-2.42187 7.08985,-2.42187 l 0.0977,0.11718 q -0.5664,2.91016 -1.11328,6.03516 l -0.78125,0.13672 q -0.54687,-1.66016 -1.05469,-2.65625 -0.50781,-1.01563 -1.60156,-1.01563 -1.05469,0 -2.63672,0.97657 v 8.45703 q 0,3.04687 0.0391,4.35547 0.0195,0.52734 0.48828,0.66406 l 2.59765,0.74219 0.0586,0.80078 q -3.04688,-0.0586 -4.96094,-0.0586 -1.91406,0 -4.53125,0.0586 l -0.0781,-0.80078 2.26563,-0.66407 q 0.46875,-0.15625 0.48828,-0.60547 0.0195,-0.83984 0.0195,-2.40234 v -6.66016 q 0,-3.18359 -0.0781,-4.74609 l -2.59766,-0.70312 z" />
  <path
     inkscape:connector-curvature="0"
     id="path1622"
     style="font-style:normal;font-variant:normal;font-weight:normal;font-stretch:normal;font-size:40px;line-height:1;font-family:Constantia;-inkscape-font-specification:Constantia;text-align:center;writing-mode:lr-tb;direction:ltr;text-anchor:middle;fill:none;fill-opacity:1;stroke:#0000ff;stroke-width:0.075;stroke-miterlimit:4;stroke-dasharray:none;stroke-opacity:1"
     d="m 903.46503,-632.16431 q 0,1.03516 -0.64453,1.69922 -0.64454,0.64453 -1.66016,0.64453 -0.97656,0 -1.60156,-0.60547 -0.60547,-0.60546 -0.60547,-1.60156 0,-1.05469 0.64453,-1.66015 0.64453,-0.625 1.69922,-0.625 0.95703,0 1.5625,0.5664 0.60547,0.54688 0.60547,1.58203 z m -6.60157,8.28125 q 3.41797,-0.64453 6.32813,-1.36718 l 0.17578,0.13671 q -0.11719,2.53907 -0.11719,5.58594 v 7.5 q 0,2.34375 0.0391,3.24219 0.0391,0.52734 0.48828,0.68359 l 2.26562,0.66407 0.0391,0.80078 q -2.69531,-0.0586 -4.60937,-0.0586 -1.91406,0 -4.55078,0.0586 l -0.0781,-0.80078 2.26563,-0.66407 q 0.44922,-0.15625 0.48828,-0.60547 0.0391,-0.76171 0.0391,-2.55859 v -6.52344 q 0,-2.55859 -0.0781,-4.72656 l -2.59766,-0.70312 z" />
  <path
     inkscape:connector-curvature="0"
     id="path1624"
     style="font-style:normal;font-variant:normal;font-weight:normal;font-stretch:normal;font-size:40px;line-height:1;font-family:Constantia;-inkscape-font-specification:Constantia;text-align:center;writing-mode:lr-tb;direction:ltr;text-anchor:middle;fill:none;fill-opacity:1;stroke:#0000ff;stroke-width:0.075;stroke-miterlimit:4;stroke-dasharray:none;stroke-opacity:1"
     d="m 919.10956,-615.54321 q -4.27735,0 -5.83985,0.83984 -1.5625,0.83984 -1.5625,2.83203 0,1.85547 1.03516,2.63672 1.03516,0.76172 2.8125,0.76172 2.01172,0 3.51563,-0.68359 z m -9.47266,-8.04688 q 3.8086,-1.66015 6.73828,-1.66015 2.98828,0 4.64844,1.5625 1.67969,1.5625 1.66016,4.51171 l -0.0977,8.125 q -0.0195,0.9961 0.0391,1.60157 0.0781,0.60547 0.35157,0.9375 0.29296,0.3125 0.85937,0.44922 0.56641,0.11718 1.52344,0.13671 l 0.0977,0.76172 q -0.83984,0.33203 -2.05078,0.66407 -1.21093,0.33203 -1.64062,0.33203 -1.89453,0 -2.59766,-1.95313 -2.73437,1.97266 -5.15625,1.97266 -2.71484,0 -4.375,-1.32813 -1.64062,-1.34765 -1.64062,-3.78906 0,-3.00781 2.67578,-4.43359 2.69531,-1.42578 8.4375,-1.42578 l 0.0195,-1.52344 q 0.0195,-2.1875 -1.11328,-3.24219 -1.13281,-1.05469 -3.47656,-1.05469 -1.77735,0 -4.45313,0.66407 z" />
  <path
     inkscape:connector-curvature="0"
     id="path1626"
     style="font-style:normal;font-variant:normal;font-weight:normal;font-stretch:normal;font-size:40px;line-height:1;font-family:Constantia;-inkscape-font-specification:Constantia;text-align:center;writing-mode:lr-tb;direction:ltr;text-anchor:middle;fill:none;fill-opacity:1;stroke:#0000ff;stroke-width:0.075;stroke-miterlimit:4;stroke-dasharray:none;stroke-opacity:1"
     d="m 927.41034,-623.88306 q 3.28125,-0.625 6.19141,-1.36718 l 0.19531,0.13671 v 2.26563 q 3.39844,-2.40234 6.32812,-2.40234 2.77344,0 4.33594,1.5625 1.58203,1.54296 1.58203,4.39453 v 6.89453 q 0,2.4414 0.0391,3.61328 0.0195,0.52734 0.50782,0.68359 l 2.16797,0.66407 0.0391,0.80078 q -2.57813,-0.0586 -4.49219,-0.0586 -1.91406,0 -4.25781,0.0586 l -0.0781,-0.80078 1.95313,-0.56641 q 0.44922,-0.15625 0.48828,-0.60547 0.0195,-0.27344 0.0195,-1.23047 v -8.51562 q 0,-2.40235 -1.15234,-3.4375 -1.15235,-1.05469 -3.39844,-1.05469 -1.97266,0 -4.08203,1.13281 v 8.53516 q 0,2.4414 0.0391,4.47265 0.0195,0.52735 0.44922,0.66407 l 2.03125,0.60547 0.0391,0.80078 q -2.42187,-0.0586 -4.33594,-0.0586 -1.91406,0 -4.53125,0.0586 l -0.0781,-0.80078 2.30469,-0.66407 q 0.42968,-0.17578 0.44922,-0.60547 0.0195,-1.25 0.0195,-2.40234 v -6.66016 q 0,-2.55859 -0.0781,-4.74609 l -2.59765,-0.70312 z" />
</g>


<g
   id="text17842-4-9-8"
   style="font-style:normal;font-variant:normal;font-weight:normal;font-stretch:normal;font-size:30px;line-height:0;font-family:'Berlin Sans FB';-inkscape-font-specification:'Berlin Sans FB';text-align:center;letter-spacing:0px;word-spacing:0px;writing-mode:lr-tb;direction:ltr;text-anchor:middle;fill:none;fill-opacity:1;stroke:#0000ff;stroke-width:0.075;stroke-miterlimit:4;stroke-dasharray:none;stroke-opacity:1"
   transform="matrix(1,0,0,-1,-3.7294272e-4,-1.8724187e-4)"
   aria-label="Maha ♥ Brian ">
  <path
     inkscape:connector-curvature="0"
     id="path1692"
     style="font-style:normal;font-variant:normal;font-weight:normal;font-stretch:normal;font-size:40px;line-height:1;font-family:Constantia;-inkscape-font-specification:Constantia;text-align:center;writing-mode:lr-tb;direction:ltr;text-anchor:middle;fill:none;fill-opacity:1;stroke:#0000ff;stroke-width:0.075;stroke-miterlimit:4;stroke-dasharray:none;stroke-opacity:1"
     d="m 69.124237,-713.07031 q 1.835938,0.0781 3.320313,0.0781 1.445312,0 3.886718,-0.0781 l 0.07813,0.83984 -2.460937,0.76172 q -0.449219,0.15625 -0.46875,0.66406 -0.03906,1.28907 -0.03906,3.24219 v 15.83984 q 0,2.30469 0.03906,3.88672 0.01953,0.44922 0.546875,0.60547 l 2.34375,0.72266 0.03906,0.83984 q -2.578125,-0.0586 -4.921875,-0.0586 -2.304687,0 -4.550781,0.0586 l -0.07813,-0.83984 2.246094,-0.6836 q 0.46875,-0.13671 0.488281,-0.68359 0.03906,-1.54297 0.03906,-3.84766 v -16.91406 l -9.6875,22.91016 -1.425782,0.15625 -9.746093,-23.06641 v 16.91406 q 0,2.30469 0.03906,3.84766 0.01953,0.54688 0.507813,0.68359 l 2.1875,0.6836 0.03906,0.83984 q -2.324219,-0.0586 -3.886719,-0.0586 -1.523437,0 -4.042968,0.0586 l -0.07813,-0.83984 2.402343,-0.72266 q 0.507813,-0.15625 0.527344,-0.60547 0.03906,-1.58203 0.03906,-3.88672 v -15.83984 q 0,-1.95312 -0.03906,-3.24219 -0.01953,-0.50781 -0.46875,-0.66406 l -2.421875,-0.76172 -0.03906,-0.83984 q 2.519531,0.0781 3.984375,0.0781 1.679687,0 3.496093,-0.0781 l 9.0625,21.42578 z" />
  <path
     inkscape:connector-curvature="0"
     id="path1694"
     style="font-style:normal;font-variant:normal;font-weight:normal;font-stretch:normal;font-size:40px;line-height:1;font-family:Constantia;-inkscape-font-specification:Constantia;text-align:center;writing-mode:lr-tb;direction:ltr;text-anchor:middle;fill:none;fill-opacity:1;stroke:#0000ff;stroke-width:0.075;stroke-miterlimit:4;stroke-dasharray:none;stroke-opacity:1"
     d="m 90.1008,-694.57422 q -4.277344,0 -5.839844,0.83985 -1.5625,0.83984 -1.5625,2.83203 0,1.85547 1.035156,2.63672 1.035156,0.76171 2.8125,0.76171 2.011719,0 3.515625,-0.68359 z m -9.472657,-8.04687 q 3.808594,-1.66016 6.738282,-1.66016 2.988281,0 4.648437,1.5625 1.679688,1.5625 1.660156,4.51172 l -0.09766,8.125 q -0.01953,0.99609 0.03906,1.60156 0.07813,0.60547 0.351562,0.9375 0.292969,0.3125 0.859375,0.44922 0.566406,0.11719 1.523438,0.13672 l 0.09766,0.76172 q -0.839844,0.33203 -2.050781,0.66406 -1.210938,0.33203 -1.640625,0.33203 -1.894532,0 -2.597657,-1.95312 -2.734375,1.97265 -5.15625,1.97265 -2.714843,0 -4.375,-1.32812 -1.640625,-1.34766 -1.640625,-3.78906 0,-3.00782 2.675782,-4.4336 2.695312,-1.42578 8.4375,-1.42578 l 0.01953,-1.52344 q 0.01953,-2.1875 -1.113281,-3.24218 -1.132813,-1.05469 -3.476563,-1.05469 -1.777344,0 -4.453125,0.66406 z" />
  <path
     inkscape:connector-curvature="0"
     id="path1696"
     style="font-style:normal;font-variant:normal;font-weight:normal;font-stretch:normal;font-size:40px;line-height:1;font-family:Constantia;-inkscape-font-specification:Constantia;text-align:center;writing-mode:lr-tb;direction:ltr;text-anchor:middle;fill:none;fill-opacity:1;stroke:#0000ff;stroke-width:0.075;stroke-miterlimit:4;stroke-dasharray:none;stroke-opacity:1"
     d="m 98.264862,-713.77344 q 3.183598,-0.625 6.367188,-1.38672 l 0.17578,0.15625 q -0.0977,1.83594 -0.11719,5.23438 0,3.39844 0,7.67578 3.39844,-2.1875 6.32813,-2.1875 2.71484,0 4.3164,1.52344 1.60157,1.5039 1.60157,4.43359 v 6.89453 q 0,2.2461 0.0391,3.61328 0.0195,0.50782 0.48828,0.6836 l 2.1875,0.66406 0.0391,0.80078 q -2.57812,-0.0586 -4.49218,-0.0586 -1.91407,0 -4.25782,0.0586 l -0.0781,-0.80078 1.93359,-0.56641 q 0.46875,-0.15625 0.50781,-0.60546 0.0195,-0.27344 0.0195,-1.23047 v -8.51563 q 0,-2.40234 -1.15235,-3.4375 -1.15234,-1.05469 -3.39844,-1.05469 -1.93359,0 -4.08203,0.9375 v 8.76954 q 0,2.42187 0.0391,4.43359 0.0195,0.54687 0.48828,0.68359 l 2.03125,0.58594 0.0391,0.80078 q -2.46094,-0.0586 -4.375,-0.0586 -1.91406,0 -4.53125,0.0586 l -0.07813,-0.80078 2.20704,-0.64453 q 0.50781,-0.15625 0.52734,-0.625 0.0391,-1.875 0.0391,-4.78516 v -8.16406 q 0,-3.98437 -0.0195,-7.05078 0,-3.06641 -0.0586,-4.60938 l -2.636727,-0.78125 z" />
  <path
     inkscape:connector-curvature="0"
     id="path1698"
     style="font-style:normal;font-variant:normal;font-weight:normal;font-stretch:normal;font-size:40px;line-height:1;font-family:Constantia;-inkscape-font-specification:Constantia;text-align:center;writing-mode:lr-tb;direction:ltr;text-anchor:middle;fill:none;fill-opacity:1;stroke:#0000ff;stroke-width:0.075;stroke-miterlimit:4;stroke-dasharray:none;stroke-opacity:1"
     d="m 132.52267,-694.57422 q -4.27734,0 -5.83984,0.83985 -1.5625,0.83984 -1.5625,2.83203 0,1.85547 1.03516,2.63672 1.03515,0.76171 2.8125,0.76171 2.01172,0 3.51562,-0.68359 z m -9.47265,-8.04687 q 3.80859,-1.66016 6.73828,-1.66016 2.98828,0 4.64844,1.5625 1.67968,1.5625 1.66015,4.51172 l -0.0977,8.125 q -0.0195,0.99609 0.0391,1.60156 0.0781,0.60547 0.35156,0.9375 0.29297,0.3125 0.85938,0.44922 0.5664,0.11719 1.52343,0.13672 l 0.0977,0.76172 q -0.83984,0.33203 -2.05078,0.66406 -1.21094,0.33203 -1.64063,0.33203 -1.89453,0 -2.59765,-1.95312 -2.73438,1.97265 -5.15625,1.97265 -2.71485,0 -4.375,-1.32812 -1.64063,-1.34766 -1.64063,-3.78906 0,-3.00782 2.67578,-4.4336 2.69532,-1.42578 8.4375,-1.42578 l 0.0195,-1.52344 q 0.0195,-2.1875 -1.11329,-3.24218 -1.13281,-1.05469 -3.47656,-1.05469 -1.77734,0 -4.45312,0.66406 z" />
  <path
     inkscape:connector-curvature="0"
     id="path1700"
     style="font-style:normal;font-variant:normal;font-weight:normal;font-stretch:normal;font-size:40px;line-height:1;font-family:Constantia;-inkscape-font-specification:Constantia;text-align:center;writing-mode:lr-tb;direction:ltr;text-anchor:middle;fill:none;fill-opacity:1;stroke:#0000ff;stroke-width:0.075;stroke-miterlimit:4;stroke-dasharray:none;stroke-opacity:1"
     d="m 90.940643,-644.79204 q -0.605468,-2.30469 -1.738281,-4.31641 -1.113281,-2.03125 -4.335937,-6.28906 -2.363282,-3.125 -2.910157,-3.96484 -0.898437,-1.36719 -1.308593,-2.5 -0.390625,-1.15235 -0.390625,-2.32422 0,-2.16797 1.445312,-3.63282 1.445313,-1.46484 3.59375,-1.46484 2.128906,0 3.710938,1.52344 1.191406,1.13281 1.933593,3.3789 0.625,-2.1875 1.796875,-3.33984 1.621094,-1.58203 3.730469,-1.58203 2.128906,0 3.593753,1.44531 1.48437,1.44531 1.48437,3.4375 0,1.77735 -0.85937,3.67188 -0.839847,1.89453 -3.320315,5.01953 -3.203125,4.04297 -4.667969,6.64062 -1.152344,2.05078 -1.757813,4.29688 z" />
  <path
     inkscape:connector-curvature="0"
     id="path1702"
     style="font-style:normal;font-variant:normal;font-weight:normal;font-stretch:normal;font-size:40px;line-height:1;font-family:Constantia;-inkscape-font-specification:Constantia;text-align:center;writing-mode:lr-tb;direction:ltr;text-anchor:middle;fill:none;fill-opacity:1;stroke:#0000ff;stroke-width:0.075;stroke-miterlimit:4;stroke-dasharray:none;stroke-opacity:1"
     d="m 46.292206,-633.07031 q 2.519531,0.0781 4.902344,0.0781 0.898437,-0.0391 2.910156,-0.11718 2.011719,-0.0781 2.714844,-0.0781 4.21875,0 6.367187,1.60156 2.167969,1.58203 2.167969,4.57032 0,4.80468 -5.175781,6.54296 3.027343,0.50782 4.746093,2.2461 1.738282,1.73828 1.738282,4.43359 0,3.90625 -2.832032,6.05469 -2.832031,2.12891 -7.851562,2.12891 -0.996094,0 -2.167969,-0.0586 -1.152344,-0.0586 -2.597656,-0.0586 -2.363281,0 -4.84375,0.0586 l -0.07813,-0.83984 2.402344,-0.72266 q 0.488281,-0.13672 0.527343,-0.60547 0.01953,-0.78125 0.01953,-1.73828 0.01953,-0.97656 0.01953,-2.14844 v -15.83984 q 0,-0.99609 -0.01953,-1.79687 0,-0.80079 -0.01953,-1.44532 -0.01953,-0.50781 -0.46875,-0.66406 l -2.421875,-0.76172 z m 6.757812,13.75 v 11.85547 q 0.585938,0.21484 1.347657,0.27343 0.78125,0.0586 1.425781,0.0586 3.242187,0 4.921875,-1.60156 1.699219,-1.60157 1.699219,-4.64844 0,-3.04688 -1.71875,-4.51172 -1.699219,-1.48438 -5.507813,-1.48438 -1.113281,0 -2.167969,0.0586 z m 0,-1.5625 q 1.210938,0.0195 2.460938,0.0195 2.890625,0 4.355469,-1.38672 1.484375,-1.40625 1.484375,-4.0625 0,-2.79297 -1.523438,-4.00391 -1.503906,-1.23046 -4.355469,-1.23046 -0.507812,0 -1.113281,0.0391 -0.605469,0.0195 -1.308594,0.0976 z" />
  <path
     inkscape:connector-curvature="0"
     id="path1704"
     style="font-style:normal;font-variant:normal;font-weight:normal;font-stretch:normal;font-size:40px;line-height:1;font-family:Constantia;-inkscape-font-specification:Constantia;text-align:center;writing-mode:lr-tb;direction:ltr;text-anchor:middle;fill:none;fill-opacity:1;stroke:#0000ff;stroke-width:0.075;stroke-miterlimit:4;stroke-dasharray:none;stroke-opacity:1"
     d="m 69.417206,-622.91406 q 3.261719,-0.625 6.191406,-1.36719 l 0.195313,0.13672 v 2.28516 q 3.613281,-2.42188 7.089843,-2.42188 l 0.09766,0.11719 q -0.566407,2.91015 -1.113282,6.03515 l -0.78125,0.13672 q -0.546875,-1.66015 -1.054687,-2.65625 -0.507813,-1.01562 -1.601563,-1.01562 -1.054687,0 -2.636718,0.97656 v 8.45703 q 0,3.04688 0.03906,4.35547 0.01953,0.52734 0.488281,0.66406 l 2.597657,0.74219 0.05859,0.80078 q -3.046875,-0.0586 -4.960937,-0.0586 -1.914063,0 -4.53125,0.0586 l -0.07813,-0.80078 2.265625,-0.66406 q 0.46875,-0.15625 0.488281,-0.60547 0.01953,-0.83984 0.01953,-2.40234 v -6.66016 q 0,-3.18359 -0.07813,-4.74609 L 69.514862,-622.25 Z" />
  <path
     inkscape:connector-curvature="0"
     id="path1706"
     style="font-style:normal;font-variant:normal;font-weight:normal;font-stretch:normal;font-size:40px;line-height:1;font-family:Constantia;-inkscape-font-specification:Constantia;text-align:center;writing-mode:lr-tb;direction:ltr;text-anchor:middle;fill:none;fill-opacity:1;stroke:#0000ff;stroke-width:0.075;stroke-miterlimit:4;stroke-dasharray:none;stroke-opacity:1"
     d="m 91.331268,-631.19531 q 0,1.03515 -0.644531,1.69922 -0.644531,0.64453 -1.660156,0.64453 -0.976563,0 -1.601563,-0.60547 -0.605468,-0.60547 -0.605468,-1.60156 0,-1.05469 0.644531,-1.66016 0.644531,-0.625 1.699219,-0.625 0.957031,0 1.5625,0.56641 0.605468,0.54687 0.605468,1.58203 z m -6.601562,8.28125 q 3.417969,-0.64453 6.328125,-1.36719 l 0.175781,0.13672 q -0.117187,2.53906 -0.117187,5.58594 v 7.5 q 0,2.34375 0.03906,3.24218 0.03906,0.52735 0.488281,0.6836 l 2.265625,0.66406 0.03906,0.80078 q -2.695313,-0.0586 -4.609375,-0.0586 -1.914063,0 -4.550781,0.0586 l -0.07813,-0.80078 2.265625,-0.66406 q 0.449218,-0.15625 0.488281,-0.60547 0.03906,-0.76172 0.03906,-2.55859 v -6.52344 q 0,-2.5586 -0.07813,-4.72656 L 84.827362,-622.25 Z" />
  <path
     inkscape:connector-curvature="0"
     id="path1708"
     style="font-style:normal;font-variant:normal;font-weight:normal;font-stretch:normal;font-size:40px;line-height:1;font-family:Constantia;-inkscape-font-specification:Constantia;text-align:center;writing-mode:lr-tb;direction:ltr;text-anchor:middle;fill:none;fill-opacity:1;stroke:#0000ff;stroke-width:0.075;stroke-miterlimit:4;stroke-dasharray:none;stroke-opacity:1"
     d="m 106.9758,-614.57422 q -4.27734,0 -5.83984,0.83985 -1.562504,0.83984 -1.562504,2.83203 0,1.85547 1.035154,2.63672 1.03516,0.76171 2.8125,0.76171 2.01172,0 3.51563,-0.68359 z m -9.472657,-8.04687 q 3.808597,-1.66016 6.738277,-1.66016 2.98829,0 4.64844,1.5625 1.67969,1.5625 1.66016,4.51172 l -0.0977,8.125 q -0.0195,0.99609 0.0391,1.60156 0.0781,0.60547 0.35157,0.9375 0.29297,0.3125 0.85937,0.44922 0.56641,0.11719 1.52344,0.13672 l 0.0977,0.76172 q -0.83985,0.33203 -2.05079,0.66406 -1.21093,0.33203 -1.64062,0.33203 -1.89453,0 -2.59766,-1.95312 -2.73437,1.97265 -5.15625,1.97265 -2.71484,0 -4.374997,-1.32812 -1.640625,-1.34766 -1.640625,-3.78906 0,-3.00782 2.675782,-4.4336 2.69531,-1.42578 8.4375,-1.42578 l 0.0195,-1.52344 q 0.0195,-2.1875 -1.11328,-3.24218 -1.13281,-1.05469 -3.47656,-1.05469 -1.77735,0 -4.453128,0.66406 z" />
  <path
     inkscape:connector-curvature="0"
     id="path1710"
     style="font-style:normal;font-variant:normal;font-weight:normal;font-stretch:normal;font-size:40px;line-height:1;font-family:Constantia;-inkscape-font-specification:Constantia;text-align:center;writing-mode:lr-tb;direction:ltr;text-anchor:middle;fill:none;fill-opacity:1;stroke:#0000ff;stroke-width:0.075;stroke-miterlimit:4;stroke-dasharray:none;stroke-opacity:1"
     d="m 115.27658,-622.91406 q 3.28125,-0.625 6.19141,-1.36719 l 0.19531,0.13672 v 2.26562 q 3.39844,-2.40234 6.32812,-2.40234 2.77344,0 4.33594,1.5625 1.58203,1.54297 1.58203,4.39453 v 6.89453 q 0,2.44141 0.0391,3.61328 0.0195,0.52735 0.50781,0.6836 l 2.16797,0.66406 0.0391,0.80078 q -2.57813,-0.0586 -4.49219,-0.0586 -1.91406,0 -4.25781,0.0586 l -0.0781,-0.80078 1.95313,-0.56641 q 0.44922,-0.15625 0.48828,-0.60546 0.0195,-0.27344 0.0195,-1.23047 v -8.51563 q 0,-2.40234 -1.15234,-3.4375 -1.15235,-1.05469 -3.39844,-1.05469 -1.97266,0 -4.08203,1.13282 v 8.53515 q 0,2.44141 0.0391,4.47266 0.0195,0.52734 0.44922,0.66406 l 2.03125,0.60547 0.0391,0.80078 q -2.42187,-0.0586 -4.33593,-0.0586 -1.91407,0 -4.53125,0.0586 l -0.0781,-0.80078 2.30469,-0.66406 q 0.42969,-0.17578 0.44922,-0.60547 0.0195,-1.25 0.0195,-2.40234 v -6.66016 q 0,-2.55859 -0.0781,-4.74609 l -2.59765,-0.70313 z" />
</g>


<g
   id="text17842-4-9-6"
   style="font-style:normal;font-variant:normal;font-weight:normal;font-stretch:normal;font-size:30px;line-height:0;font-family:'Berlin Sans FB';-inkscape-font-specification:'Berlin Sans FB';text-align:center;letter-spacing:0px;word-spacing:0px;writing-mode:lr-tb;direction:ltr;text-anchor:middle;fill:none;fill-opacity:1;stroke:#0000ff;stroke-width:0.075;stroke-miterlimit:4;stroke-dasharray:none;stroke-opacity:1"
   transform="matrix(1,0,0,-1,-3.7294272e-4,-1.8724187e-4)"
   aria-label="Maha ♥ Brian ">
  <path
     inkscape:connector-curvature="0"
     id="path1671"
     style="font-style:normal;font-variant:normal;font-weight:normal;font-stretch:normal;font-size:40px;line-height:1;font-family:Constantia;-inkscape-font-specification:Constantia;text-align:center;writing-mode:lr-tb;direction:ltr;text-anchor:middle;fill:none;fill-opacity:1;stroke:#0000ff;stroke-width:0.075;stroke-miterlimit:4;stroke-dasharray:none;stroke-opacity:1"
     d="m 272.28629,-714.12756 q 1.83593,0.0781 3.32031,0.0781 1.44531,0 3.88672,-0.0781 l 0.0781,0.83984 -2.46094,0.76172 q -0.44921,0.15625 -0.46875,0.66406 -0.0391,1.28906 -0.0391,3.24219 v 15.83984 q 0,2.30469 0.0391,3.88672 0.0195,0.44922 0.54688,0.60547 l 2.34375,0.72266 0.0391,0.83984 q -2.57812,-0.0586 -4.92187,-0.0586 -2.30469,0 -4.55078,0.0586 l -0.0781,-0.83984 2.24609,-0.6836 q 0.46875,-0.13672 0.48829,-0.68359 0.0391,-1.54297 0.0391,-3.84766 v -16.91406 l -9.6875,22.91016 -1.42578,0.15625 -9.7461,-23.06641 v 16.91406 q 0,2.30469 0.0391,3.84766 0.0195,0.54687 0.50781,0.68359 l 2.1875,0.6836 0.0391,0.83984 q -2.32422,-0.0586 -3.88672,-0.0586 -1.52344,0 -4.04297,0.0586 l -0.0781,-0.83984 2.40234,-0.72266 q 0.50781,-0.15625 0.52735,-0.60547 0.0391,-1.58203 0.0391,-3.88672 v -15.83984 q 0,-1.95313 -0.0391,-3.24219 -0.0195,-0.50781 -0.46875,-0.66406 l -2.42188,-0.76172 -0.0391,-0.83984 q 2.51953,0.0781 3.98437,0.0781 1.67969,0 3.4961,-0.0781 l 9.0625,21.42578 z" />
  <path
     inkscape:connector-curvature="0"
     id="path1673"
     style="font-style:normal;font-variant:normal;font-weight:normal;font-stretch:normal;font-size:40px;line-height:1;font-family:Constantia;-inkscape-font-specification:Constantia;text-align:center;writing-mode:lr-tb;direction:ltr;text-anchor:middle;fill:none;fill-opacity:1;stroke:#0000ff;stroke-width:0.075;stroke-miterlimit:4;stroke-dasharray:none;stroke-opacity:1"
     d="m 293.26285,-695.63147 q -4.27735,0 -5.83985,0.83984 -1.5625,0.83985 -1.5625,2.83204 0,1.85546 1.03516,2.63671 1.03516,0.76172 2.8125,0.76172 2.01172,0 3.51563,-0.68359 z m -9.47266,-8.04687 q 3.8086,-1.66016 6.73828,-1.66016 2.98828,0 4.64844,1.5625 1.67969,1.5625 1.66016,4.51172 l -0.0977,8.125 q -0.0195,0.99609 0.0391,1.60156 0.0781,0.60547 0.35157,0.9375 0.29296,0.3125 0.85937,0.44922 0.56641,0.11719 1.52344,0.13672 l 0.0976,0.76172 q -0.83984,0.33203 -2.05078,0.66406 -1.21093,0.33203 -1.64062,0.33203 -1.89453,0 -2.59766,-1.95312 -2.73437,1.97265 -5.15625,1.97265 -2.71484,0 -4.375,-1.32812 -1.64062,-1.34766 -1.64062,-3.78907 0,-3.00781 2.67578,-4.43359 2.69531,-1.42578 8.4375,-1.42578 l 0.0195,-1.52344 q 0.0195,-2.1875 -1.11328,-3.24219 -1.13281,-1.05468 -3.47656,-1.05468 -1.77735,0 -4.45313,0.66406 z" />
  <path
     inkscape:connector-curvature="0"
     id="path1675"
     style="font-style:normal;font-variant:normal;font-weight:normal;font-stretch:normal;font-size:40px;line-height:1;font-family:Constantia;-inkscape-font-specification:Constantia;text-align:center;writing-mode:lr-tb;direction:ltr;text-anchor:middle;fill:none;fill-opacity:1;stroke:#0000ff;stroke-width:0.075;stroke-miterlimit:4;stroke-dasharray:none;stroke-opacity:1"
     d="m 301.42691,-714.83069 q 3.18359,-0.625 6.36719,-1.38672 l 0.17578,0.15625 q -0.0977,1.83594 -0.11719,5.23438 0,3.39844 0,7.67578 3.39844,-2.1875 6.32813,-2.1875 2.71484,0 4.3164,1.52344 1.60157,1.5039 1.60157,4.43359 v 6.89453 q 0,2.2461 0.0391,3.61328 0.0195,0.50782 0.48828,0.6836 l 2.1875,0.66406 0.0391,0.80078 q -2.57812,-0.0586 -4.49219,-0.0586 -1.91406,0 -4.25781,0.0586 l -0.0781,-0.80078 1.93359,-0.56641 q 0.46875,-0.15625 0.50781,-0.60547 0.0195,-0.27343 0.0195,-1.23046 v -8.51563 q 0,-2.40234 -1.15234,-3.4375 -1.15234,-1.05469 -3.39844,-1.05469 -1.93359,0 -4.08203,0.9375 v 8.76953 q 0,2.42188 0.0391,4.4336 0.0195,0.54687 0.48829,0.68359 l 2.03125,0.58594 0.0391,0.80078 q -2.46094,-0.0586 -4.375,-0.0586 -1.91406,0 -4.53125,0.0586 l -0.0781,-0.80078 2.20703,-0.64453 q 0.50782,-0.15625 0.52735,-0.625 0.0391,-1.875 0.0391,-4.78516 v -8.16406 q 0,-3.98438 -0.0195,-7.05078 0,-3.06641 -0.0586,-4.60938 l -2.63672,-0.78125 z" />
  <path
     inkscape:connector-curvature="0"
     id="path1677"
     style="font-style:normal;font-variant:normal;font-weight:normal;font-stretch:normal;font-size:40px;line-height:1;font-family:Constantia;-inkscape-font-specification:Constantia;text-align:center;writing-mode:lr-tb;direction:ltr;text-anchor:middle;fill:none;fill-opacity:1;stroke:#0000ff;stroke-width:0.075;stroke-miterlimit:4;stroke-dasharray:none;stroke-opacity:1"
     d="m 335.68472,-695.63147 q -4.27734,0 -5.83984,0.83984 -1.5625,0.83985 -1.5625,2.83204 0,1.85546 1.03516,2.63671 1.03515,0.76172 2.8125,0.76172 2.01171,0 3.51562,-0.68359 z m -9.47265,-8.04687 q 3.80859,-1.66016 6.73828,-1.66016 2.98828,0 4.64844,1.5625 1.67968,1.5625 1.66015,4.51172 l -0.0976,8.125 q -0.0195,0.99609 0.0391,1.60156 0.0781,0.60547 0.35156,0.9375 0.29297,0.3125 0.85938,0.44922 0.5664,0.11719 1.52343,0.13672 l 0.0977,0.76172 q -0.83984,0.33203 -2.05078,0.66406 -1.21094,0.33203 -1.64063,0.33203 -1.89453,0 -2.59765,-1.95312 -2.73438,1.97265 -5.15625,1.97265 -2.71485,0 -4.375,-1.32812 -1.64063,-1.34766 -1.64063,-3.78907 0,-3.00781 2.67578,-4.43359 2.69532,-1.42578 8.4375,-1.42578 l 0.0195,-1.52344 q 0.0195,-2.1875 -1.11328,-3.24219 -1.13281,-1.05468 -3.47656,-1.05468 -1.77734,0 -4.45312,0.66406 z" />
  <path
     inkscape:connector-curvature="0"
     id="path1679"
     style="font-style:normal;font-variant:normal;font-weight:normal;font-stretch:normal;font-size:40px;line-height:1;font-family:Constantia;-inkscape-font-specification:Constantia;text-align:center;writing-mode:lr-tb;direction:ltr;text-anchor:middle;fill:none;fill-opacity:1;stroke:#0000ff;stroke-width:0.075;stroke-miterlimit:4;stroke-dasharray:none;stroke-opacity:1"
     d="m 294.10269,-645.84929 q -0.60547,-2.30469 -1.73828,-4.31641 -1.11328,-2.03125 -4.33594,-6.28906 -2.36328,-3.125 -2.91015,-3.96484 -0.89844,-1.36719 -1.3086,-2.5 -0.39062,-1.15235 -0.39062,-2.32422 0,-2.16797 1.44531,-3.63282 1.44531,-1.46484 3.59375,-1.46484 2.12891,0 3.71094,1.52344 1.1914,1.13281 1.93359,3.3789 0.625,-2.1875 1.79688,-3.33984 1.62109,-1.58203 3.73047,-1.58203 2.1289,0 3.59375,1.44531 1.48437,1.44531 1.48437,3.4375 0,1.77735 -0.85937,3.67188 -0.83985,1.89453 -3.32032,5.01953 -3.20312,4.04297 -4.66797,6.64062 -1.15234,2.05078 -1.75781,4.29688 z" />
  <path
     inkscape:connector-curvature="0"
     id="path1681"
     style="font-style:normal;font-variant:normal;font-weight:normal;font-stretch:normal;font-size:40px;line-height:1;font-family:Constantia;-inkscape-font-specification:Constantia;text-align:center;writing-mode:lr-tb;direction:ltr;text-anchor:middle;fill:none;fill-opacity:1;stroke:#0000ff;stroke-width:0.075;stroke-miterlimit:4;stroke-dasharray:none;stroke-opacity:1"
     d="m 249.45425,-634.12756 q 2.51954,0.0781 4.90235,0.0781 0.89844,-0.0391 2.91015,-0.11719 2.01172,-0.0781 2.71485,-0.0781 4.21875,0 6.36719,1.60156 2.16796,1.58203 2.16796,4.57031 0,4.80469 -5.17578,6.54297 3.02735,0.50782 4.7461,2.2461 1.73828,1.73828 1.73828,4.43359 0,3.90625 -2.83203,6.05469 -2.83203,2.1289 -7.85157,2.1289 -0.99609,0 -2.16796,-0.0586 -1.15235,-0.0586 -2.59766,-0.0586 -2.36328,0 -4.84375,0.0586 l -0.0781,-0.83984 2.40235,-0.72266 q 0.48828,-0.13672 0.52734,-0.60547 0.0195,-0.78125 0.0195,-1.73828 0.0195,-0.97656 0.0195,-2.14844 v -15.83984 q 0,-0.99609 -0.0195,-1.79688 0,-0.80078 -0.0195,-1.44531 -0.0195,-0.50781 -0.46875,-0.66406 l -2.42187,-0.76172 z m 6.75782,13.75 v 11.85547 q 0.58593,0.21484 1.34765,0.27343 0.78125,0.0586 1.42578,0.0586 3.24219,0 4.92188,-1.60157 1.69922,-1.60156 1.69922,-4.64843 0,-3.04688 -1.71875,-4.51172 -1.69922,-1.48438 -5.50781,-1.48438 -1.11329,0 -2.16797,0.0586 z m 0,-1.5625 q 1.21093,0.0195 2.46093,0.0195 2.89063,0 4.35547,-1.38672 1.48438,-1.40625 1.48438,-4.0625 0,-2.79297 -1.52344,-4.00391 -1.50391,-1.23047 -4.35547,-1.23047 -0.50781,0 -1.11328,0.0391 -0.60547,0.0195 -1.30859,0.0977 z" />
  <path
     inkscape:connector-curvature="0"
     id="path1683"
     style="font-style:normal;font-variant:normal;font-weight:normal;font-stretch:normal;font-size:40px;line-height:1;font-family:Constantia;-inkscape-font-specification:Constantia;text-align:center;writing-mode:lr-tb;direction:ltr;text-anchor:middle;fill:none;fill-opacity:1;stroke:#0000ff;stroke-width:0.075;stroke-miterlimit:4;stroke-dasharray:none;stroke-opacity:1"
     d="m 272.57925,-623.97131 q 3.26172,-0.625 6.19141,-1.36719 l 0.19531,0.13672 v 2.28515 q 3.61328,-2.42187 7.08985,-2.42187 l 0.0977,0.11719 q -0.5664,2.91015 -1.11328,6.03515 l -0.78125,0.13672 q -0.54687,-1.66015 -1.05469,-2.65625 -0.50781,-1.01562 -1.60156,-1.01562 -1.05469,0 -2.63672,0.97656 v 8.45703 q 0,3.04688 0.0391,4.35547 0.0195,0.52734 0.48828,0.66406 l 2.59765,0.74219 0.0586,0.80078 q -3.04688,-0.0586 -4.96094,-0.0586 -1.91406,0 -4.53125,0.0586 l -0.0781,-0.80078 2.26563,-0.66406 q 0.46875,-0.15625 0.48828,-0.60547 0.0195,-0.83985 0.0195,-2.40235 v -6.66015 q 0,-3.1836 -0.0781,-4.7461 l -2.59766,-0.70312 z" />
  <path
     inkscape:connector-curvature="0"
     id="path1685"
     style="font-style:normal;font-variant:normal;font-weight:normal;font-stretch:normal;font-size:40px;line-height:1;font-family:Constantia;-inkscape-font-specification:Constantia;text-align:center;writing-mode:lr-tb;direction:ltr;text-anchor:middle;fill:none;fill-opacity:1;stroke:#0000ff;stroke-width:0.075;stroke-miterlimit:4;stroke-dasharray:none;stroke-opacity:1"
     d="m 294.49332,-632.25256 q 0,1.03515 -0.64453,1.69922 -0.64454,0.64453 -1.66016,0.64453 -0.97656,0 -1.60156,-0.60547 -0.60547,-0.60547 -0.60547,-1.60156 0,-1.05469 0.64453,-1.66016 0.64453,-0.625 1.69922,-0.625 0.95703,0 1.5625,0.56641 0.60547,0.54687 0.60547,1.58203 z m -6.60157,8.28125 q 3.41797,-0.64453 6.32813,-1.36719 l 0.17578,0.13672 q -0.11719,2.53906 -0.11719,5.58594 v 7.5 q 0,2.34375 0.0391,3.24218 0.0391,0.52735 0.48828,0.6836 l 2.26562,0.66406 0.0391,0.80078 q -2.69531,-0.0586 -4.60937,-0.0586 -1.91406,0 -4.55078,0.0586 l -0.0781,-0.80078 2.26563,-0.66406 q 0.44922,-0.15625 0.48828,-0.60547 0.0391,-0.76172 0.0391,-2.5586 v -6.52343 q 0,-2.5586 -0.0781,-4.72657 l -2.59766,-0.70312 z" />
  <path
     inkscape:connector-curvature="0"
     id="path1687"
     style="font-style:normal;font-variant:normal;font-weight:normal;font-stretch:normal;font-size:40px;line-height:1;font-family:Constantia;-inkscape-font-specification:Constantia;text-align:center;writing-mode:lr-tb;direction:ltr;text-anchor:middle;fill:none;fill-opacity:1;stroke:#0000ff;stroke-width:0.075;stroke-miterlimit:4;stroke-dasharray:none;stroke-opacity:1"
     d="m 310.13785,-615.63147 q -4.27735,0 -5.83985,0.83984 -1.5625,0.83985 -1.5625,2.83204 0,1.85546 1.03516,2.63671 1.03516,0.76172 2.8125,0.76172 2.01172,0 3.51563,-0.68359 z m -9.47266,-8.04687 q 3.8086,-1.66016 6.73828,-1.66016 2.98828,0 4.64844,1.5625 1.67969,1.5625 1.66016,4.51172 l -0.0977,8.125 q -0.0195,0.99609 0.0391,1.60156 0.0781,0.60547 0.35157,0.9375 0.29296,0.3125 0.85937,0.44922 0.56641,0.11719 1.52344,0.13672 l 0.0976,0.76172 q -0.83984,0.33203 -2.05078,0.66406 -1.21093,0.33203 -1.64062,0.33203 -1.89453,0 -2.59766,-1.95312 -2.73437,1.97265 -5.15625,1.97265 -2.71484,0 -4.375,-1.32812 -1.64062,-1.34766 -1.64062,-3.78907 0,-3.00781 2.67578,-4.43359 2.69531,-1.42578 8.4375,-1.42578 l 0.0195,-1.52344 q 0.0195,-2.1875 -1.11328,-3.24219 -1.13281,-1.05468 -3.47656,-1.05468 -1.77735,0 -4.45313,0.66406 z" />
  <path
     inkscape:connector-curvature="0"
     id="path1689"
     style="font-style:normal;font-variant:normal;font-weight:normal;font-stretch:normal;font-size:40px;line-height:1;font-family:Constantia;-inkscape-font-specification:Constantia;text-align:center;writing-mode:lr-tb;direction:ltr;text-anchor:middle;fill:none;fill-opacity:1;stroke:#0000ff;stroke-width:0.075;stroke-miterlimit:4;stroke-dasharray:none;stroke-opacity:1"
     d="m 318.43863,-623.97131 q 3.28125,-0.625 6.19141,-1.36719 l 0.19531,0.13672 v 2.26562 q 3.39844,-2.40234 6.32812,-2.40234 2.77344,0 4.33594,1.5625 1.58203,1.54297 1.58203,4.39453 v 6.89453 q 0,2.44141 0.0391,3.61328 0.0195,0.52735 0.50782,0.6836 l 2.16797,0.66406 0.0391,0.80078 q -2.57813,-0.0586 -4.49219,-0.0586 -1.91406,0 -4.25781,0.0586 l -0.0781,-0.80078 1.95313,-0.56641 q 0.44922,-0.15625 0.48828,-0.60547 0.0195,-0.27343 0.0195,-1.23046 v -8.51563 q 0,-2.40234 -1.15234,-3.4375 -1.15235,-1.05469 -3.39844,-1.05469 -1.97266,0 -4.08203,1.13282 v 8.53515 q 0,2.44141 0.0391,4.47266 0.0195,0.52734 0.44922,0.66406 l 2.03125,0.60547 0.0391,0.80078 q -2.42187,-0.0586 -4.33594,-0.0586 -1.91406,0 -4.53125,0.0586 l -0.0781,-0.80078 2.30469,-0.66406 q 0.42968,-0.17578 0.44922,-0.60547 0.0195,-1.25 0.0195,-2.40235 v -6.66015 q 0,-2.5586 -0.0781,-4.7461 l -2.59765,-0.70312 z" />
</g>


<g
   id="text17842-4-9-63"
   style="font-style:normal;font-variant:normal;font-weight:normal;font-stretch:normal;font-size:30px;line-height:0;font-family:'Berlin Sans FB';-inkscape-font-specification:'Berlin Sans FB';text-align:center;letter-spacing:0px;word-spacing:0px;writing-mode:lr-tb;direction:ltr;text-anchor:middle;fill:none;fill-opacity:1;stroke:#0000ff;stroke-width:0.075;stroke-miterlimit:4;stroke-dasharray:none;stroke-opacity:1"
   transform="matrix(1,0,0,-1,-3.7294272e-4,-1.8724187e-4)"
   aria-label="Maha ♥ Brian ">
  <path
     inkscape:connector-curvature="0"
     id="path1650"
     style="font-style:normal;font-variant:normal;font-weight:normal;font-stretch:normal;font-size:40px;line-height:1;font-family:Constantia;-inkscape-font-specification:Constantia;text-align:center;writing-mode:lr-tb;direction:ltr;text-anchor:middle;fill:none;fill-opacity:1;stroke:#0000ff;stroke-width:0.075;stroke-miterlimit:4;stroke-dasharray:none;stroke-opacity:1"
     d="m 475.04855,-712.58466 q 1.83594,0.0781 3.32032,0.0781 1.44531,0 3.88671,-0.0781 l 0.0781,0.83985 -2.46094,0.76172 q -0.44922,0.15625 -0.46875,0.66406 -0.0391,1.28906 -0.0391,3.24219 v 15.83984 q 0,2.30469 0.0391,3.88672 0.0195,0.44922 0.54688,0.60547 l 2.34375,0.72265 0.0391,0.83985 q -2.57813,-0.0586 -4.92188,-0.0586 -2.30468,0 -4.55078,0.0586 l -0.0781,-0.83985 2.24609,-0.68359 q 0.46875,-0.13672 0.48828,-0.68359 0.0391,-1.54297 0.0391,-3.84766 v -16.91406 l -9.6875,22.91015 -1.42579,0.15625 -9.74609,-23.0664 v 16.91406 q 0,2.30469 0.0391,3.84766 0.0195,0.54687 0.50782,0.68359 l 2.1875,0.68359 0.0391,0.83985 q -2.32422,-0.0586 -3.88672,-0.0586 -1.52344,0 -4.04297,0.0586 l -0.0781,-0.83985 2.40234,-0.72265 q 0.50781,-0.15625 0.52734,-0.60547 0.0391,-1.58203 0.0391,-3.88672 v -15.83984 q 0,-1.95313 -0.0391,-3.24219 -0.0195,-0.50781 -0.46875,-0.66406 l -2.42187,-0.76172 -0.0391,-0.83985 q 2.51953,0.0781 3.98437,0.0781 1.67969,0 3.49609,-0.0781 l 9.0625,21.42579 z" />
  <path
     inkscape:connector-curvature="0"
     id="path1652"
     style="font-style:normal;font-variant:normal;font-weight:normal;font-stretch:normal;font-size:40px;line-height:1;font-family:Constantia;-inkscape-font-specification:Constantia;text-align:center;writing-mode:lr-tb;direction:ltr;text-anchor:middle;fill:none;fill-opacity:1;stroke:#0000ff;stroke-width:0.075;stroke-miterlimit:4;stroke-dasharray:none;stroke-opacity:1"
     d="m 496.02512,-694.08856 q -4.27735,0 -5.83985,0.83984 -1.5625,0.83985 -1.5625,2.83203 0,1.85547 1.03516,2.63672 1.03515,0.76172 2.8125,0.76172 2.01172,0 3.51562,-0.68359 z m -9.47266,-8.04688 q 3.80859,-1.66015 6.73828,-1.66015 2.98828,0 4.64844,1.5625 1.67969,1.5625 1.66015,4.51172 l -0.0976,8.125 q -0.0195,0.99609 0.0391,1.60156 0.0781,0.60547 0.35156,0.9375 0.29297,0.3125 0.85938,0.44922 0.5664,0.11718 1.52344,0.13672 l 0.0976,0.76171 q -0.83984,0.33204 -2.05078,0.66407 -1.21094,0.33203 -1.64062,0.33203 -1.89454,0 -2.59766,-1.95313 -2.73438,1.97266 -5.15625,1.97266 -2.71484,0 -4.375,-1.32813 -1.64063,-1.34765 -1.64063,-3.78906 0,-3.00781 2.67579,-4.43359 2.69531,-1.42578 8.4375,-1.42578 l 0.0195,-1.52344 q 0.0195,-2.1875 -1.11328,-3.24219 -1.13282,-1.05469 -3.47657,-1.05469 -1.77734,0 -4.45312,0.66407 z" />
  <path
     inkscape:connector-curvature="0"
     id="path1654"
     style="font-style:normal;font-variant:normal;font-weight:normal;font-stretch:normal;font-size:40px;line-height:1;font-family:Constantia;-inkscape-font-specification:Constantia;text-align:center;writing-mode:lr-tb;direction:ltr;text-anchor:middle;fill:none;fill-opacity:1;stroke:#0000ff;stroke-width:0.075;stroke-miterlimit:4;stroke-dasharray:none;stroke-opacity:1"
     d="m 504.18918,-713.28778 q 3.18359,-0.625 6.36719,-1.38672 l 0.17578,0.15625 q -0.0977,1.83594 -0.11719,5.23438 0,3.39843 0,7.67578 3.39844,-2.1875 6.32812,-2.1875 2.71485,0 4.31641,1.52343 1.60156,1.50391 1.60156,4.4336 v 6.89453 q 0,2.24609 0.0391,3.61328 0.0195,0.50781 0.48828,0.68359 l 2.1875,0.66407 0.0391,0.80078 q -2.57813,-0.0586 -4.49219,-0.0586 -1.91406,0 -4.25781,0.0586 l -0.0781,-0.80078 1.9336,-0.56641 q 0.46875,-0.15625 0.50781,-0.60547 0.0195,-0.27344 0.0195,-1.23047 v -8.51562 q 0,-2.40235 -1.15234,-3.4375 -1.15235,-1.05469 -3.39844,-1.05469 -1.93359,0 -4.08203,0.9375 v 8.76953 q 0,2.42188 0.0391,4.4336 0.0195,0.54687 0.48828,0.68359 l 2.03125,0.58594 0.0391,0.80078 q -2.46094,-0.0586 -4.375,-0.0586 -1.91407,0 -4.53125,0.0586 l -0.0781,-0.80078 2.20703,-0.64453 q 0.50781,-0.15625 0.52735,-0.625 0.0391,-1.875 0.0391,-4.78516 v -8.16406 q 0,-3.98438 -0.0195,-7.05078 0,-3.06641 -0.0586,-4.60938 l -2.63672,-0.78125 z" />
  <path
     inkscape:connector-curvature="0"
     id="path1656"
     style="font-style:normal;font-variant:normal;font-weight:normal;font-stretch:normal;font-size:40px;line-height:1;font-family:Constantia;-inkscape-font-specification:Constantia;text-align:center;writing-mode:lr-tb;direction:ltr;text-anchor:middle;fill:none;fill-opacity:1;stroke:#0000ff;stroke-width:0.075;stroke-miterlimit:4;stroke-dasharray:none;stroke-opacity:1"
     d="m 538.44699,-694.08856 q -4.27734,0 -5.83984,0.83984 -1.5625,0.83985 -1.5625,2.83203 0,1.85547 1.03515,2.63672 1.03516,0.76172 2.8125,0.76172 2.01172,0 3.51563,-0.68359 z m -9.47266,-8.04688 q 3.8086,-1.66015 6.73829,-1.66015 2.98828,0 4.64843,1.5625 1.67969,1.5625 1.66016,4.51172 l -0.0977,8.125 q -0.0195,0.99609 0.0391,1.60156 0.0781,0.60547 0.35156,0.9375 0.29297,0.3125 0.85937,0.44922 0.56641,0.11718 1.52344,0.13672 l 0.0977,0.76171 q -0.83985,0.33204 -2.05078,0.66407 -1.21094,0.33203 -1.64063,0.33203 -1.89453,0 -2.59766,-1.95313 -2.73437,1.97266 -5.15625,1.97266 -2.71484,0 -4.375,-1.32813 -1.64062,-1.34765 -1.64062,-3.78906 0,-3.00781 2.67578,-4.43359 2.69531,-1.42578 8.4375,-1.42578 l 0.0195,-1.52344 q 0.0195,-2.1875 -1.11328,-3.24219 -1.13281,-1.05469 -3.47656,-1.05469 -1.77735,0 -4.45313,0.66407 z" />
  <path
     inkscape:connector-curvature="0"
     id="path1658"
     style="font-style:normal;font-variant:normal;font-weight:normal;font-stretch:normal;font-size:40px;line-height:1;font-family:Constantia;-inkscape-font-specification:Constantia;text-align:center;writing-mode:lr-tb;direction:ltr;text-anchor:middle;fill:none;fill-opacity:1;stroke:#0000ff;stroke-width:0.075;stroke-miterlimit:4;stroke-dasharray:none;stroke-opacity:1"
     d="m 496.86496,-644.30638 q -0.60547,-2.30469 -1.73828,-4.31641 -1.11328,-2.03125 -4.33594,-6.28906 -2.36328,-3.125 -2.91016,-3.96485 -0.89843,-1.36718 -1.30859,-2.5 -0.39062,-1.15234 -0.39062,-2.32422 0,-2.16796 1.44531,-3.63281 1.44531,-1.46484 3.59375,-1.46484 2.1289,0 3.71094,1.52344 1.1914,1.13281 1.93359,3.3789 0.625,-2.1875 1.79687,-3.33984 1.6211,-1.58203 3.73047,-1.58203 2.12891,0 3.59375,1.44531 1.48438,1.44531 1.48438,3.4375 0,1.77734 -0.85938,3.67187 -0.83984,1.89454 -3.32031,5.01954 -3.20312,4.04296 -4.66797,6.64062 -1.15234,2.05078 -1.75781,4.29688 z" />
  <path
     inkscape:connector-curvature="0"
     id="path1660"
     style="font-style:normal;font-variant:normal;font-weight:normal;font-stretch:normal;font-size:40px;line-height:1;font-family:Constantia;-inkscape-font-specification:Constantia;text-align:center;writing-mode:lr-tb;direction:ltr;text-anchor:middle;fill:none;fill-opacity:1;stroke:#0000ff;stroke-width:0.075;stroke-miterlimit:4;stroke-dasharray:none;stroke-opacity:1"
     d="m 452.21652,-632.58466 q 2.51953,0.0781 4.90235,0.0781 0.89843,-0.0391 2.91015,-0.11719 2.01172,-0.0781 2.71485,-0.0781 4.21875,0 6.36718,1.60156 2.16797,1.58203 2.16797,4.57031 0,4.80469 -5.17578,6.54297 3.02734,0.50781 4.74609,2.24609 1.73829,1.73829 1.73829,4.4336 0,3.90625 -2.83204,6.05469 -2.83203,2.1289 -7.85156,2.1289 -0.99609,0 -2.16797,-0.0586 -1.15234,-0.0586 -2.59765,-0.0586 -2.36328,0 -4.84375,0.0586 l -0.0781,-0.83985 2.40235,-0.72265 q 0.48828,-0.13672 0.52734,-0.60547 0.0195,-0.78125 0.0195,-1.73828 0.0195,-0.97656 0.0195,-2.14844 v -15.83984 q 0,-0.9961 -0.0195,-1.79688 0,-0.80078 -0.0195,-1.44531 -0.0195,-0.50781 -0.46875,-0.66406 l -2.42188,-0.76172 z m 6.75781,13.75 v 11.85547 q 0.58594,0.21485 1.34766,0.27344 0.78125,0.0586 1.42578,0.0586 3.24219,0 4.92188,-1.60156 1.69922,-1.60156 1.69922,-4.64844 0,-3.04687 -1.71875,-4.51171 -1.69922,-1.48438 -5.50782,-1.48438 -1.11328,0 -2.16797,0.0586 z m 0,-1.5625 q 1.21094,0.0195 2.46094,0.0195 2.89063,0 4.35547,-1.38672 1.48438,-1.40625 1.48438,-4.0625 0,-2.79297 -1.52344,-4.00391 -1.50391,-1.23047 -4.35547,-1.23047 -0.50781,0 -1.11328,0.0391 -0.60547,0.0195 -1.3086,0.0977 z" />
  <path
     inkscape:connector-curvature="0"
     id="path1662"
     style="font-style:normal;font-variant:normal;font-weight:normal;font-stretch:normal;font-size:40px;line-height:1;font-family:Constantia;-inkscape-font-specification:Constantia;text-align:center;writing-mode:lr-tb;direction:ltr;text-anchor:middle;fill:none;fill-opacity:1;stroke:#0000ff;stroke-width:0.075;stroke-miterlimit:4;stroke-dasharray:none;stroke-opacity:1"
     d="m 475.34152,-622.42841 q 3.26172,-0.625 6.19141,-1.36718 l 0.19531,0.13672 v 2.28515 q 3.61328,-2.42187 7.08984,-2.42187 l 0.0977,0.11718 q -0.56641,2.91016 -1.11328,6.03516 l -0.78125,0.13672 q -0.54688,-1.66016 -1.05469,-2.65625 -0.50781,-1.01563 -1.60156,-1.01563 -1.05469,0 -2.63672,0.97657 v 8.45703 q 0,3.04687 0.0391,4.35547 0.0195,0.52734 0.48828,0.66406 l 2.59766,0.74219 0.0586,0.80078 q -3.04687,-0.0586 -4.96093,-0.0586 -1.91407,0 -4.53125,0.0586 l -0.0781,-0.80078 2.26563,-0.66407 q 0.46875,-0.15625 0.48828,-0.60546 0.0195,-0.83985 0.0195,-2.40235 v -6.66015 q 0,-3.1836 -0.0781,-4.7461 l -2.59765,-0.70312 z" />
  <path
     inkscape:connector-curvature="0"
     id="path1664"
     style="font-style:normal;font-variant:normal;font-weight:normal;font-stretch:normal;font-size:40px;line-height:1;font-family:Constantia;-inkscape-font-specification:Constantia;text-align:center;writing-mode:lr-tb;direction:ltr;text-anchor:middle;fill:none;fill-opacity:1;stroke:#0000ff;stroke-width:0.075;stroke-miterlimit:4;stroke-dasharray:none;stroke-opacity:1"
     d="m 497.25558,-630.70966 q 0,1.03516 -0.64453,1.69922 -0.64453,0.64453 -1.66015,0.64453 -0.97657,0 -1.60157,-0.60546 -0.60546,-0.60547 -0.60546,-1.60157 0,-1.05468 0.64453,-1.66015 0.64453,-0.625 1.69922,-0.625 0.95703,0 1.5625,0.5664 0.60546,0.54688 0.60546,1.58203 z m -6.60156,8.28125 q 3.41797,-0.64453 6.32813,-1.36718 l 0.17578,0.13672 q -0.11719,2.53906 -0.11719,5.58593 v 7.5 q 0,2.34375 0.0391,3.24219 0.0391,0.52734 0.48828,0.68359 l 2.26563,0.66407 0.0391,0.80078 q -2.69531,-0.0586 -4.60937,-0.0586 -1.91407,0 -4.55078,0.0586 l -0.0781,-0.80078 2.26563,-0.66407 q 0.44921,-0.15625 0.48828,-0.60546 0.0391,-0.76172 0.0391,-2.5586 v -6.52344 q 0,-2.55859 -0.0781,-4.72656 l -2.59765,-0.70312 z" />
  <path
     inkscape:connector-curvature="0"
     id="path1666"
     style="font-style:normal;font-variant:normal;font-weight:normal;font-stretch:normal;font-size:40px;line-height:1;font-family:Constantia;-inkscape-font-specification:Constantia;text-align:center;writing-mode:lr-tb;direction:ltr;text-anchor:middle;fill:none;fill-opacity:1;stroke:#0000ff;stroke-width:0.075;stroke-miterlimit:4;stroke-dasharray:none;stroke-opacity:1"
     d="m 512.90012,-614.08856 q -4.27735,0 -5.83985,0.83984 -1.5625,0.83985 -1.5625,2.83203 0,1.85547 1.03516,2.63672 1.03515,0.76172 2.8125,0.76172 2.01172,0 3.51562,-0.68359 z m -9.47266,-8.04688 q 3.80859,-1.66015 6.73828,-1.66015 2.98828,0 4.64844,1.5625 1.67969,1.5625 1.66015,4.51172 l -0.0977,8.125 q -0.0195,0.99609 0.0391,1.60156 0.0781,0.60547 0.35156,0.9375 0.29297,0.3125 0.85938,0.44922 0.5664,0.11718 1.52344,0.13672 l 0.0976,0.76171 q -0.83984,0.33204 -2.05078,0.66407 -1.21094,0.33203 -1.64062,0.33203 -1.89454,0 -2.59766,-1.95313 -2.73438,1.97266 -5.15625,1.97266 -2.71484,0 -4.375,-1.32813 -1.64063,-1.34765 -1.64063,-3.78906 0,-3.00781 2.67579,-4.43359 2.69531,-1.42578 8.4375,-1.42578 l 0.0195,-1.52344 q 0.0195,-2.1875 -1.11328,-3.24219 -1.13282,-1.05469 -3.47657,-1.05469 -1.77734,0 -4.45312,0.66407 z" />
  <path
     inkscape:connector-curvature="0"
     id="path1668"
     style="font-style:normal;font-variant:normal;font-weight:normal;font-stretch:normal;font-size:40px;line-height:1;font-family:Constantia;-inkscape-font-specification:Constantia;text-align:center;writing-mode:lr-tb;direction:ltr;text-anchor:middle;fill:none;fill-opacity:1;stroke:#0000ff;stroke-width:0.075;stroke-miterlimit:4;stroke-dasharray:none;stroke-opacity:1"
     d="m 521.2009,-622.42841 q 3.28125,-0.625 6.1914,-1.36718 l 0.19532,0.13672 v 2.26562 q 3.39843,-2.40234 6.32812,-2.40234 2.77344,0 4.33594,1.5625 1.58203,1.54297 1.58203,4.39453 v 6.89453 q 0,2.44141 0.0391,3.61328 0.0195,0.52734 0.50781,0.68359 l 2.16797,0.66407 0.0391,0.80078 q -2.57813,-0.0586 -4.49219,-0.0586 -1.91406,0 -4.25781,0.0586 l -0.0781,-0.80078 1.95313,-0.56641 q 0.44921,-0.15625 0.48828,-0.60547 0.0195,-0.27344 0.0195,-1.23047 v -8.51562 q 0,-2.40235 -1.15235,-3.4375 -1.15234,-1.05469 -3.39843,-1.05469 -1.97266,0 -4.08203,1.13281 v 8.53516 q 0,2.44141 0.0391,4.47266 0.0195,0.52734 0.44922,0.66406 l 2.03125,0.60547 0.0391,0.80078 q -2.42188,-0.0586 -4.33594,-0.0586 -1.91406,0 -4.53125,0.0586 l -0.0781,-0.80078 2.30468,-0.66407 q 0.42969,-0.17578 0.44922,-0.60546 0.0195,-1.25 0.0195,-2.40235 v -6.66015 q 0,-2.5586 -0.0781,-4.7461 l -2.59766,-0.70312 z" />
</g>


<g
   id="text17842-4-9-86"
   style="font-style:normal;font-variant:normal;font-weight:normal;font-stretch:normal;font-size:30px;line-height:0;font-family:'Berlin Sans FB';-inkscape-font-specification:'Berlin Sans FB';text-align:center;letter-spacing:0px;word-spacing:0px;writing-mode:lr-tb;direction:ltr;text-anchor:middle;fill:none;fill-opacity:1;stroke:#0000ff;stroke-width:0.075;stroke-miterlimit:4;stroke-dasharray:none;stroke-opacity:1"
   transform="matrix(1,0,0,-1,-3.7294272e-4,-1.8724187e-4)"
   aria-label="Maha ♥ Brian ">
  <path
     inkscape:connector-curvature="0"
     id="path1629"
     style="font-style:normal;font-variant:normal;font-weight:normal;font-stretch:normal;font-size:40px;line-height:1;font-family:Constantia;-inkscape-font-specification:Constantia;text-align:center;writing-mode:lr-tb;direction:ltr;text-anchor:middle;fill:none;fill-opacity:1;stroke:#0000ff;stroke-width:0.075;stroke-miterlimit:4;stroke-dasharray:none;stroke-opacity:1"
     d="m 678.26923,-714.04175 q 1.83593,0.0781 3.32031,0.0781 1.44531,0 3.88672,-0.0781 l 0.0781,0.83985 -2.46094,0.76171 q -0.44921,0.15625 -0.46875,0.66407 -0.0391,1.28906 -0.0391,3.24218 v 15.83985 q 0,2.30469 0.0391,3.88672 0.0195,0.44922 0.54688,0.60547 l 2.34375,0.72265 0.0391,0.83985 q -2.57812,-0.0586 -4.92187,-0.0586 -2.30469,0 -4.55078,0.0586 l -0.0781,-0.83985 2.24609,-0.68359 q 0.46875,-0.13672 0.48829,-0.6836 0.0391,-1.54296 0.0391,-3.84765 v -16.91406 l -9.6875,22.91015 -1.42578,0.15625 -9.7461,-23.0664 v 16.91406 q 0,2.30469 0.0391,3.84765 0.0195,0.54688 0.50781,0.6836 l 2.1875,0.68359 0.0391,0.83985 q -2.32422,-0.0586 -3.88672,-0.0586 -1.52344,0 -4.04297,0.0586 l -0.0781,-0.83985 2.40234,-0.72265 q 0.50781,-0.15625 0.52735,-0.60547 0.0391,-1.58203 0.0391,-3.88672 v -15.83985 q 0,-1.95312 -0.0391,-3.24218 -0.0195,-0.50782 -0.46875,-0.66407 l -2.42188,-0.76171 -0.0391,-0.83985 q 2.51953,0.0781 3.98437,0.0781 1.67969,0 3.4961,-0.0781 l 9.0625,21.42578 z" />
  <path
     inkscape:connector-curvature="0"
     id="path1631"
     style="font-style:normal;font-variant:normal;font-weight:normal;font-stretch:normal;font-size:40px;line-height:1;font-family:Constantia;-inkscape-font-specification:Constantia;text-align:center;writing-mode:lr-tb;direction:ltr;text-anchor:middle;fill:none;fill-opacity:1;stroke:#0000ff;stroke-width:0.075;stroke-miterlimit:4;stroke-dasharray:none;stroke-opacity:1"
     d="m 699.24579,-695.54565 q -4.27735,0 -5.83985,0.83984 -1.5625,0.83984 -1.5625,2.83203 0,1.85547 1.03516,2.63672 1.03516,0.76172 2.8125,0.76172 2.01172,0 3.51563,-0.6836 z m -9.47266,-8.04688 q 3.8086,-1.66016 6.73828,-1.66016 2.98828,0 4.64844,1.5625 1.67969,1.5625 1.66016,4.51172 l -0.0977,8.125 q -0.0195,0.9961 0.0391,1.60157 0.0781,0.60546 0.35157,0.9375 0.29296,0.3125 0.85937,0.44921 0.56641,0.11719 1.52344,0.13672 l 0.0976,0.76172 q -0.83984,0.33203 -2.05078,0.66406 -1.21093,0.33204 -1.64062,0.33204 -1.89453,0 -2.59766,-1.95313 -2.73437,1.97266 -5.15625,1.97266 -2.71484,0 -4.375,-1.32813 -1.64062,-1.34765 -1.64062,-3.78906 0,-3.00781 2.67578,-4.43359 2.69531,-1.42579 8.4375,-1.42579 l 0.0195,-1.52343 q 0.0195,-2.1875 -1.11328,-3.24219 -1.13281,-1.05469 -3.47656,-1.05469 -1.77735,0 -4.45313,0.66406 z" />
  <path
     inkscape:connector-curvature="0"
     id="path1633"
     style="font-style:normal;font-variant:normal;font-weight:normal;font-stretch:normal;font-size:40px;line-height:1;font-family:Constantia;-inkscape-font-specification:Constantia;text-align:center;writing-mode:lr-tb;direction:ltr;text-anchor:middle;fill:none;fill-opacity:1;stroke:#0000ff;stroke-width:0.075;stroke-miterlimit:4;stroke-dasharray:none;stroke-opacity:1"
     d="m 707.40985,-714.74487 q 3.18359,-0.625 6.36719,-1.38672 l 0.17578,0.15625 q -0.0977,1.83594 -0.11719,5.23437 0,3.39844 0,7.67578 3.39844,-2.1875 6.32813,-2.1875 2.71484,0 4.3164,1.52344 1.60157,1.50391 1.60157,4.4336 v 6.89453 q 0,2.24609 0.0391,3.61328 0.0195,0.50781 0.48828,0.68359 l 2.1875,0.66406 0.0391,0.80079 q -2.57812,-0.0586 -4.49219,-0.0586 -1.91406,0 -4.25781,0.0586 l -0.0781,-0.80079 1.93359,-0.5664 q 0.46875,-0.15625 0.50781,-0.60547 0.0195,-0.27344 0.0195,-1.23047 v -8.51562 q 0,-2.40235 -1.15234,-3.4375 -1.15234,-1.05469 -3.39844,-1.05469 -1.93359,0 -4.08203,0.9375 v 8.76953 q 0,2.42187 0.0391,4.43359 0.0195,0.54688 0.48829,0.6836 l 2.03125,0.58593 0.0391,0.80079 q -2.46094,-0.0586 -4.375,-0.0586 -1.91406,0 -4.53125,0.0586 l -0.0781,-0.80079 2.20703,-0.64453 q 0.50782,-0.15625 0.52735,-0.625 0.0391,-1.875 0.0391,-4.78515 v -8.16407 q 0,-3.98437 -0.0195,-7.05078 0,-3.0664 -0.0586,-4.60937 l -2.63672,-0.78125 z" />
  <path
     inkscape:connector-curvature="0"
     id="path1635"
     style="font-style:normal;font-variant:normal;font-weight:normal;font-stretch:normal;font-size:40px;line-height:1;font-family:Constantia;-inkscape-font-specification:Constantia;text-align:center;writing-mode:lr-tb;direction:ltr;text-anchor:middle;fill:none;fill-opacity:1;stroke:#0000ff;stroke-width:0.075;stroke-miterlimit:4;stroke-dasharray:none;stroke-opacity:1"
     d="m 741.66766,-695.54565 q -4.27734,0 -5.83984,0.83984 -1.5625,0.83984 -1.5625,2.83203 0,1.85547 1.03516,2.63672 1.03515,0.76172 2.8125,0.76172 2.01171,0 3.51562,-0.6836 z m -9.47265,-8.04688 q 3.80859,-1.66016 6.73828,-1.66016 2.98828,0 4.64844,1.5625 1.67968,1.5625 1.66015,4.51172 l -0.0977,8.125 q -0.0195,0.9961 0.0391,1.60157 0.0781,0.60546 0.35156,0.9375 0.29297,0.3125 0.85938,0.44921 0.5664,0.11719 1.52343,0.13672 l 0.0977,0.76172 q -0.83984,0.33203 -2.05078,0.66406 -1.21094,0.33204 -1.64063,0.33204 -1.89453,0 -2.59765,-1.95313 -2.73438,1.97266 -5.15625,1.97266 -2.71485,0 -4.375,-1.32813 -1.64063,-1.34765 -1.64063,-3.78906 0,-3.00781 2.67578,-4.43359 2.69532,-1.42579 8.4375,-1.42579 l 0.0195,-1.52343 q 0.0195,-2.1875 -1.11328,-3.24219 -1.13281,-1.05469 -3.47656,-1.05469 -1.77734,0 -4.45312,0.66406 z" />
  <path
     inkscape:connector-curvature="0"
     id="path1637"
     style="font-style:normal;font-variant:normal;font-weight:normal;font-stretch:normal;font-size:40px;line-height:1;font-family:Constantia;-inkscape-font-specification:Constantia;text-align:center;writing-mode:lr-tb;direction:ltr;text-anchor:middle;fill:none;fill-opacity:1;stroke:#0000ff;stroke-width:0.075;stroke-miterlimit:4;stroke-dasharray:none;stroke-opacity:1"
     d="m 700.08563,-645.76348 q -0.60547,-2.30468 -1.73828,-4.3164 -1.11328,-2.03125 -4.33594,-6.28907 -2.36328,-3.125 -2.91015,-3.96484 -0.89844,-1.36719 -1.3086,-2.5 -0.39062,-1.15234 -0.39062,-2.32422 0,-2.16797 1.44531,-3.63281 1.44531,-1.46484 3.59375,-1.46484 2.12891,0 3.71094,1.52343 1.1914,1.13282 1.93359,3.37891 0.625,-2.1875 1.79688,-3.33984 1.62109,-1.58204 3.73047,-1.58204 2.1289,0 3.59375,1.44532 1.48437,1.44531 1.48437,3.4375 0,1.77734 -0.85937,3.67187 -0.83985,1.89453 -3.32032,5.01953 -3.20312,4.04297 -4.66797,6.64063 -1.15234,2.05078 -1.75781,4.29687 z" />
  <path
     inkscape:connector-curvature="0"
     id="path1639"
     style="font-style:normal;font-variant:normal;font-weight:normal;font-stretch:normal;font-size:40px;line-height:1;font-family:Constantia;-inkscape-font-specification:Constantia;text-align:center;writing-mode:lr-tb;direction:ltr;text-anchor:middle;fill:none;fill-opacity:1;stroke:#0000ff;stroke-width:0.075;stroke-miterlimit:4;stroke-dasharray:none;stroke-opacity:1"
     d="m 655.43719,-634.04175 q 2.51954,0.0781 4.90235,0.0781 0.89844,-0.0391 2.91015,-0.11719 2.01172,-0.0781 2.71485,-0.0781 4.21875,0 6.36719,1.60157 2.16796,1.58203 2.16796,4.57031 0,4.80469 -5.17578,6.54297 3.02735,0.50781 4.7461,2.24609 1.73828,1.73828 1.73828,4.4336 0,3.90625 -2.83203,6.05468 -2.83203,2.12891 -7.85157,2.12891 -0.99609,0 -2.16796,-0.0586 -1.15235,-0.0586 -2.59766,-0.0586 -2.36328,0 -4.84375,0.0586 l -0.0781,-0.83985 2.40235,-0.72265 q 0.48828,-0.13672 0.52734,-0.60547 0.0195,-0.78125 0.0195,-1.73828 0.0195,-0.97657 0.0195,-2.14844 v -15.83985 q 0,-0.99609 -0.0195,-1.79687 0,-0.80078 -0.0195,-1.44531 -0.0195,-0.50782 -0.46875,-0.66407 l -2.42187,-0.76171 z m 6.75782,13.75 v 11.85547 q 0.58593,0.21484 1.34765,0.27344 0.78125,0.0586 1.42578,0.0586 3.24219,0 4.92188,-1.60156 1.69922,-1.60156 1.69922,-4.64844 0,-3.04687 -1.71875,-4.51172 -1.69922,-1.48437 -5.50781,-1.48437 -1.11329,0 -2.16797,0.0586 z m 0,-1.5625 q 1.21093,0.0195 2.46093,0.0195 2.89063,0 4.35547,-1.38672 1.48438,-1.40625 1.48438,-4.0625 0,-2.79296 -1.52344,-4.0039 -1.50391,-1.23047 -4.35547,-1.23047 -0.50781,0 -1.11328,0.0391 -0.60547,0.0195 -1.30859,0.0977 z" />
  <path
     inkscape:connector-curvature="0"
     id="path1641"
     style="font-style:normal;font-variant:normal;font-weight:normal;font-stretch:normal;font-size:40px;line-height:1;font-family:Constantia;-inkscape-font-specification:Constantia;text-align:center;writing-mode:lr-tb;direction:ltr;text-anchor:middle;fill:none;fill-opacity:1;stroke:#0000ff;stroke-width:0.075;stroke-miterlimit:4;stroke-dasharray:none;stroke-opacity:1"
     d="m 678.56219,-623.8855 q 3.26172,-0.625 6.19141,-1.36719 l 0.19531,0.13672 v 2.28516 q 3.61328,-2.42188 7.08985,-2.42188 l 0.0976,0.11719 q -0.5664,2.91016 -1.11328,6.03516 l -0.78125,0.13672 q -0.54687,-1.66016 -1.05469,-2.65625 -0.50781,-1.01563 -1.60156,-1.01563 -1.05469,0 -2.63672,0.97656 v 8.45704 q 0,3.04687 0.0391,4.35546 0.0195,0.52735 0.48828,0.66407 l 2.59765,0.74218 0.0586,0.80079 q -3.04688,-0.0586 -4.96094,-0.0586 -1.91406,0 -4.53125,0.0586 l -0.0781,-0.80079 2.26563,-0.66406 q 0.46875,-0.15625 0.48828,-0.60547 0.0195,-0.83984 0.0195,-2.40234 v -6.66016 q 0,-3.18359 -0.0781,-4.74609 l -2.59766,-0.70313 z" />
  <path
     inkscape:connector-curvature="0"
     id="path1643"
     style="font-style:normal;font-variant:normal;font-weight:normal;font-stretch:normal;font-size:40px;line-height:1;font-family:Constantia;-inkscape-font-specification:Constantia;text-align:center;writing-mode:lr-tb;direction:ltr;text-anchor:middle;fill:none;fill-opacity:1;stroke:#0000ff;stroke-width:0.075;stroke-miterlimit:4;stroke-dasharray:none;stroke-opacity:1"
     d="m 700.47626,-632.16675 q 0,1.03516 -0.64453,1.69922 -0.64454,0.64453 -1.66016,0.64453 -0.97656,0 -1.60156,-0.60547 -0.60547,-0.60547 -0.60547,-1.60156 0,-1.05469 0.64453,-1.66016 0.64453,-0.625 1.69922,-0.625 0.95703,0 1.5625,0.56641 0.60547,0.54688 0.60547,1.58203 z m -6.60157,8.28125 q 3.41797,-0.64453 6.32813,-1.36719 l 0.17578,0.13672 q -0.11719,2.53907 -0.11719,5.58594 v 7.5 q 0,2.34375 0.0391,3.24219 0.0391,0.52734 0.48828,0.68359 l 2.26562,0.66406 0.0391,0.80079 q -2.69531,-0.0586 -4.60937,-0.0586 -1.91406,0 -4.55078,0.0586 l -0.0781,-0.80079 2.26563,-0.66406 q 0.44922,-0.15625 0.48828,-0.60547 0.0391,-0.76172 0.0391,-2.55859 v -6.52344 q 0,-2.55859 -0.0781,-4.72656 l -2.59766,-0.70313 z" />
  <path
     inkscape:connector-curvature="0"
     id="path1645"
     style="font-style:normal;font-variant:normal;font-weight:normal;font-stretch:normal;font-size:40px;line-height:1;font-family:Constantia;-inkscape-font-specification:Constantia;text-align:center;writing-mode:lr-tb;direction:ltr;text-anchor:middle;fill:none;fill-opacity:1;stroke:#0000ff;stroke-width:0.075;stroke-miterlimit:4;stroke-dasharray:none;stroke-opacity:1"
     d="m 716.12079,-615.54565 q -4.27735,0 -5.83985,0.83984 -1.5625,0.83984 -1.5625,2.83203 0,1.85547 1.03516,2.63672 1.03516,0.76172 2.8125,0.76172 2.01172,0 3.51563,-0.6836 z m -9.47266,-8.04688 q 3.8086,-1.66016 6.73828,-1.66016 2.98828,0 4.64844,1.5625 1.67969,1.5625 1.66016,4.51172 l -0.0977,8.125 q -0.0195,0.9961 0.0391,1.60157 0.0781,0.60546 0.35157,0.9375 0.29296,0.3125 0.85937,0.44921 0.56641,0.11719 1.52344,0.13672 l 0.0976,0.76172 q -0.83984,0.33203 -2.05078,0.66406 -1.21093,0.33204 -1.64062,0.33204 -1.89453,0 -2.59766,-1.95313 -2.73437,1.97266 -5.15625,1.97266 -2.71484,0 -4.375,-1.32813 -1.64062,-1.34765 -1.64062,-3.78906 0,-3.00781 2.67578,-4.43359 2.69531,-1.42579 8.4375,-1.42579 l 0.0195,-1.52343 q 0.0195,-2.1875 -1.11328,-3.24219 -1.13281,-1.05469 -3.47656,-1.05469 -1.77735,0 -4.45313,0.66406 z" />
  <path
     inkscape:connector-curvature="0"
     id="path1647"
     style="font-style:normal;font-variant:normal;font-weight:normal;font-stretch:normal;font-size:40px;line-height:1;font-family:Constantia;-inkscape-font-specification:Constantia;text-align:center;writing-mode:lr-tb;direction:ltr;text-anchor:middle;fill:none;fill-opacity:1;stroke:#0000ff;stroke-width:0.075;stroke-miterlimit:4;stroke-dasharray:none;stroke-opacity:1"
     d="m 724.42157,-623.8855 q 3.28125,-0.625 6.19141,-1.36719 l 0.19531,0.13672 v 2.26563 q 3.39844,-2.40235 6.32812,-2.40235 2.77344,0 4.33594,1.5625 1.58203,1.54297 1.58203,4.39454 v 6.89453 q 0,2.4414 0.0391,3.61328 0.0195,0.52734 0.50782,0.68359 l 2.16797,0.66406 0.0391,0.80079 q -2.57813,-0.0586 -4.49219,-0.0586 -1.91406,0 -4.25781,0.0586 l -0.0781,-0.80079 1.95313,-0.5664 q 0.44922,-0.15625 0.48828,-0.60547 0.0195,-0.27344 0.0195,-1.23047 v -8.51562 q 0,-2.40235 -1.15234,-3.4375 -1.15235,-1.05469 -3.39844,-1.05469 -1.97266,0 -4.08203,1.13281 v 8.53516 q 0,2.4414 0.0391,4.47265 0.0195,0.52735 0.44922,0.66407 l 2.03125,0.60546 0.0391,0.80079 q -2.42187,-0.0586 -4.33594,-0.0586 -1.91406,0 -4.53125,0.0586 l -0.0781,-0.80079 2.30469,-0.66406 q 0.42968,-0.17578 0.44922,-0.60547 0.0195,-1.25 0.0195,-2.40234 v -6.66016 q 0,-2.55859 -0.0781,-4.74609 l -2.59765,-0.70313 z" />
</g>


</g>
  </g>
</svg>
